<svg width="534" height="487" viewBox="0 0 534 487" fill="none" xmlns="http://www.w3.org/2000/svg">
<mask id="mask0_1_2" style="mask-type:luminance" maskUnits="userSpaceOnUse" x="310" y="151" width="11" height="73">
<path d="M310.432 151.944H320.4V223.371H310.432V151.944Z" fill="white"/>
</mask>
<g mask="url(#mask0_1_2)">
<mask id="mask1_1_2" style="mask-type:luminance" maskUnits="userSpaceOnUse" x="72" y="48" width="389" height="422">
<path d="M312.846 469.838L72.4627 380.626L220.598 48.629L460.981 137.836L312.846 469.838Z" fill="white"/>
</mask>
<g mask="url(#mask1_1_2)">
<mask id="mask2_1_2" style="mask-type:luminance" maskUnits="userSpaceOnUse" x="72" y="48" width="389" height="422">
<path d="M312.846 469.838L72.4627 380.626L220.598 48.629L460.981 137.836L312.846 469.838Z" fill="white"/>
</mask>
<g mask="url(#mask2_1_2)">
<mask id="mask3_1_2" style="mask-type:luminance" maskUnits="userSpaceOnUse" x="72" y="48" width="389" height="422">
<path d="M312.846 469.838L72.4627 380.626L220.598 48.629L460.981 137.836L312.846 469.838Z" fill="white"/>
</mask>
<g mask="url(#mask3_1_2)">
<path d="M319.059 152.73C315.75 155.779 314.932 160.472 314.837 164.586C314.704 169.131 315.277 173.656 315.416 178.262C315.661 187.591 315.104 196.875 313.758 206.118C312.985 211.338 311.984 216.466 310.738 221.565C310.554 222.285 311.767 222.376 311.928 221.702C314.109 212.783 315.538 203.769 316.217 194.658C316.551 190.163 316.701 185.664 316.668 181.159C316.634 176.74 316.273 172.362 316.095 167.929C315.867 163.059 316.011 157.134 320.022 153.435C320.567 152.938 319.605 152.274 319.065 152.766L319.059 152.73Z" fill="black"/>
</g>
</g>
</g>
</g>
<mask id="mask4_1_2" style="mask-type:luminance" maskUnits="userSpaceOnUse" x="313" y="153" width="31" height="289">
<path d="M313.28 153.243H343.184V441.547H313.28V153.243Z" fill="white"/>
</mask>
<g mask="url(#mask4_1_2)">
<mask id="mask5_1_2" style="mask-type:luminance" maskUnits="userSpaceOnUse" x="72" y="48" width="389" height="422">
<path d="M312.846 469.838L72.4627 380.626L220.598 48.629L460.981 137.836L312.846 469.838Z" fill="white"/>
</mask>
<g mask="url(#mask5_1_2)">
<mask id="mask6_1_2" style="mask-type:luminance" maskUnits="userSpaceOnUse" x="72" y="48" width="389" height="422">
<path d="M312.846 469.838L72.4627 380.626L220.598 48.629L460.981 137.836L312.846 469.838Z" fill="white"/>
</mask>
<g mask="url(#mask6_1_2)">
<mask id="mask7_1_2" style="mask-type:luminance" maskUnits="userSpaceOnUse" x="72" y="48" width="389" height="422">
<path d="M312.846 469.838L72.4627 380.626L220.598 48.629L460.981 137.836L312.846 469.838Z" fill="white"/>
</mask>
<g mask="url(#mask7_1_2)">
<path d="M325.951 440.06L320.778 408.679C319.187 399.031 317.335 389.387 316.211 379.682C315.127 370.338 314.926 360.618 318.164 351.599C318.965 349.377 320.1 347.267 320.806 345.024C321.385 343.076 321.451 341.118 321.006 339.145C320.606 337.258 319.888 335.442 319.293 333.6C318.531 331.292 318.197 328.938 318.286 326.528C318.475 321.943 320.016 317.524 321.529 313.187L326.702 298.343C329.984 288.892 333.4 279.457 336.398 269.93C339.274 261.093 341.293 252.099 342.466 242.942C343.518 233.567 342.772 224.182 341.721 214.823C340.631 205.139 339.262 195.444 339.446 185.674C339.607 176.862 340.703 167.66 337.532 159.132C336.804 157.103 335.641 155.302 334.056 153.73C333.533 153.212 332.582 153.882 333.105 154.389C336.615 157.813 337.432 162.521 338.094 166.995C338.784 171.718 338.595 176.472 338.4 181.22C338.011 190.737 338.817 200.132 339.93 209.598C341.042 219.059 342.227 228.692 341.66 238.239C341.104 247.599 339.007 256.857 336.364 265.892C333.661 275.165 330.329 284.276 327.147 293.423L321.996 308.251C320.467 312.618 318.759 316.991 317.769 321.501C316.757 325.636 316.884 329.745 318.136 333.823C318.881 335.817 319.482 337.846 319.949 339.911C320.289 342.422 319.883 344.832 318.737 347.14C316.862 351.315 315.572 355.637 314.871 360.101C314.287 364.56 314.142 369.034 314.454 373.519C315.004 382.894 316.84 392.182 318.403 401.466C320.111 411.84 321.824 422.214 323.532 432.583L324.789 440.228C324.811 440.375 324.889 440.497 325.022 440.588C325.15 440.679 325.301 440.715 325.467 440.694C325.629 440.674 325.762 440.603 325.862 440.481C325.962 440.36 326.001 440.228 325.979 440.076L325.951 440.06Z" fill="black"/>
</g>
</g>
</g>
</g>
<mask id="mask8_1_2" style="mask-type:luminance" maskUnits="userSpaceOnUse" x="271" y="96" width="10" height="130">
<path d="M271.984 96.1013H280.528V225.968H271.984V96.1013Z" fill="white"/>
</mask>
<g mask="url(#mask8_1_2)">
<mask id="mask9_1_2" style="mask-type:luminance" maskUnits="userSpaceOnUse" x="72" y="48" width="389" height="422">
<path d="M312.846 469.838L72.4627 380.626L220.598 48.629L460.981 137.836L312.846 469.838Z" fill="white"/>
</mask>
<g mask="url(#mask9_1_2)">
<mask id="mask10_1_2" style="mask-type:luminance" maskUnits="userSpaceOnUse" x="72" y="48" width="389" height="422">
<path d="M312.846 469.838L72.4627 380.626L220.598 48.629L460.981 137.836L312.846 469.838Z" fill="white"/>
</mask>
<g mask="url(#mask10_1_2)">
<mask id="mask11_1_2" style="mask-type:luminance" maskUnits="userSpaceOnUse" x="72" y="48" width="389" height="422">
<path d="M312.846 469.838L72.4627 380.626L220.598 48.629L460.981 137.836L312.846 469.838Z" fill="white"/>
</mask>
<g mask="url(#mask11_1_2)">
<path d="M276.896 97.4152C270.521 104.487 272.574 114.273 273.325 122.643C273.998 130.196 274.559 137.76 274.921 145.324C275.31 153.283 275.472 161.253 275.499 169.212C275.522 173.854 275.444 178.485 275.427 183.127C275.41 187.769 276.028 192.162 276.389 196.687C276.807 201.557 276.673 206.478 277.357 211.343C277.691 213.686 277.886 216.04 277.941 218.404C277.93 220.753 278.231 223.071 278.837 225.359C279.032 226.029 280.233 225.877 280.022 225.207C278.843 221.169 279.354 217.019 278.809 212.926C278.214 208.669 277.997 204.428 277.791 200.147C277.585 195.642 276.946 191.183 276.712 186.678C276.467 182.042 276.69 177.375 276.701 172.743C276.723 157.392 276.161 142.067 274.882 126.762C274.493 122.151 273.881 117.534 273.647 112.933C273.375 107.734 274.092 102.25 277.836 98.095C278.331 97.5573 277.374 96.8876 276.89 97.4304L276.896 97.4152Z" fill="black"/>
</g>
</g>
</g>
</g>
<mask id="mask12_1_2" style="mask-type:luminance" maskUnits="userSpaceOnUse" x="290" y="93" width="24" height="135">
<path d="M290.496 93.504H313.28V227.267H290.496V93.504Z" fill="white"/>
</mask>
<g mask="url(#mask12_1_2)">
<mask id="mask13_1_2" style="mask-type:luminance" maskUnits="userSpaceOnUse" x="72" y="48" width="389" height="422">
<path d="M312.846 469.838L72.4627 380.626L220.598 48.629L460.981 137.836L312.846 469.838Z" fill="white"/>
</mask>
<g mask="url(#mask13_1_2)">
<mask id="mask14_1_2" style="mask-type:luminance" maskUnits="userSpaceOnUse" x="72" y="48" width="389" height="422">
<path d="M312.846 469.838L72.4627 380.626L220.598 48.629L460.981 137.836L312.846 469.838Z" fill="white"/>
</mask>
<g mask="url(#mask14_1_2)">
<mask id="mask15_1_2" style="mask-type:luminance" maskUnits="userSpaceOnUse" x="72" y="48" width="389" height="422">
<path d="M312.846 469.838L72.4627 380.626L220.598 48.629L460.981 137.836L312.846 469.838Z" fill="white"/>
</mask>
<g mask="url(#mask15_1_2)">
<path d="M313.035 226.09C310.443 217.476 307.862 208.796 307.295 199.837C307.006 195.216 307.161 190.59 307.211 185.958C307.261 181.331 307.139 176.756 306.828 172.16C306.227 163.165 305.348 154.171 304.558 145.202C303.774 136.375 302.828 127.553 301.282 118.828C300.458 114.115 299.441 109.438 298.228 104.791C297.254 101.017 295.747 97.0043 292.07 94.6961C291.436 94.2954 290.702 95.1628 291.342 95.5687C294.801 97.7399 296.164 101.534 297.082 105.08C298.122 109.139 299.034 113.228 299.797 117.337C301.387 125.966 302.372 134.676 303.179 143.386C303.98 152.096 304.803 161.045 305.448 169.867C305.804 174.508 306.049 179.16 306.032 183.807C306.01 188.241 305.837 192.685 305.954 197.144C306.232 207.132 308.936 216.715 311.823 226.298C312.023 226.972 313.213 226.815 313.013 226.146L313.035 226.09Z" fill="black"/>
</g>
</g>
</g>
</g>
<mask id="mask16_1_2" style="mask-type:luminance" maskUnits="userSpaceOnUse" x="242" y="77" width="12" height="148">
<path d="M242.08 77.92H253.472V224.669H242.08V77.92Z" fill="white"/>
</mask>
<g mask="url(#mask16_1_2)">
<mask id="mask17_1_2" style="mask-type:luminance" maskUnits="userSpaceOnUse" x="72" y="48" width="389" height="422">
<path d="M312.846 469.838L72.4627 380.626L220.598 48.629L460.981 137.836L312.846 469.838Z" fill="white"/>
</mask>
<g mask="url(#mask17_1_2)">
<mask id="mask18_1_2" style="mask-type:luminance" maskUnits="userSpaceOnUse" x="72" y="48" width="389" height="422">
<path d="M312.846 469.838L72.4627 380.626L220.598 48.629L460.981 137.836L312.846 469.838Z" fill="white"/>
</mask>
<g mask="url(#mask18_1_2)">
<mask id="mask19_1_2" style="mask-type:luminance" maskUnits="userSpaceOnUse" x="72" y="48" width="389" height="422">
<path d="M312.846 469.838L72.4627 380.626L220.598 48.629L460.981 137.836L312.846 469.838Z" fill="white"/>
</mask>
<g mask="url(#mask19_1_2)">
<path d="M252.126 79.0259C246.63 84.6974 245.835 92.5199 245.896 99.7589C245.935 103.553 245.974 107.338 245.829 111.112C245.679 114.886 245.518 118.858 245.506 122.694C245.479 129.755 245.234 136.867 245.139 143.959C245.073 148.601 245.017 153.253 245.123 157.9C245.195 160.898 245.495 163.881 245.618 166.874C245.99 176.111 245.762 185.385 245.351 194.597C245.139 199.634 244.861 204.677 244.416 209.704C244.16 213.509 243.649 217.283 242.892 221.027C242.759 221.61 242.62 222.194 242.436 222.762C242.252 223.33 243.332 223.883 243.548 223.178C244.438 219.972 245.006 216.72 245.256 213.423C245.779 208.71 246.085 203.967 246.335 199.229C246.841 189.494 247.075 179.728 246.869 169.988C246.808 167.021 246.569 164.073 246.402 161.111C246.163 156.88 246.207 152.644 246.235 148.408C246.302 141.276 246.63 134.148 246.708 127.021C246.736 124.028 246.669 121.04 246.758 118.047C246.869 114.242 247.053 110.442 247.097 106.638C247.197 99.2516 246.28 91.6118 249.612 84.6568C250.468 82.8357 251.614 81.1717 253.044 79.6803C253.555 79.1527 252.593 78.4932 252.087 79.0107L252.126 79.0259Z" fill="black"/>
</g>
</g>
</g>
</g>
<mask id="mask20_1_2" style="mask-type:luminance" maskUnits="userSpaceOnUse" x="266" y="76" width="11" height="27">
<path d="M266.288 76.6213H276.256V102.595H266.288V76.6213Z" fill="white"/>
</mask>
<g mask="url(#mask20_1_2)">
<mask id="mask21_1_2" style="mask-type:luminance" maskUnits="userSpaceOnUse" x="72" y="48" width="389" height="422">
<path d="M312.846 469.838L72.4627 380.626L220.598 48.629L460.981 137.836L312.846 469.838Z" fill="white"/>
</mask>
<g mask="url(#mask21_1_2)">
<mask id="mask22_1_2" style="mask-type:luminance" maskUnits="userSpaceOnUse" x="72" y="48" width="389" height="422">
<path d="M312.846 469.838L72.4627 380.626L220.598 48.629L460.981 137.836L312.846 469.838Z" fill="white"/>
</mask>
<g mask="url(#mask22_1_2)">
<mask id="mask23_1_2" style="mask-type:luminance" maskUnits="userSpaceOnUse" x="72" y="48" width="389" height="422">
<path d="M312.846 469.838L72.4627 380.626L220.598 48.629L460.981 137.836L312.846 469.838Z" fill="white"/>
</mask>
<g mask="url(#mask23_1_2)">
<path d="M275.427 101.083C275.127 96.7608 275.049 92.3423 274.226 88.0608C273.469 84.18 271.856 80.5275 268.641 77.8033C268.068 77.3214 267.345 78.1939 267.907 78.6708C271.139 81.4406 272.563 85.225 273.202 89.1159C273.842 93.0119 273.959 97.2072 274.242 101.235C274.292 101.94 275.477 101.783 275.427 101.078V101.083Z" fill="black"/>
</g>
</g>
</g>
</g>
<mask id="mask24_1_2" style="mask-type:luminance" maskUnits="userSpaceOnUse" x="199" y="85" width="24" height="165">
<path d="M199.36 85.712H222.144V249.344H199.36V85.712Z" fill="white"/>
</mask>
<g mask="url(#mask24_1_2)">
<mask id="mask25_1_2" style="mask-type:luminance" maskUnits="userSpaceOnUse" x="72" y="48" width="389" height="422">
<path d="M312.846 469.838L72.4627 380.626L220.598 48.629L460.981 137.836L312.846 469.838Z" fill="white"/>
</mask>
<g mask="url(#mask25_1_2)">
<mask id="mask26_1_2" style="mask-type:luminance" maskUnits="userSpaceOnUse" x="72" y="48" width="389" height="422">
<path d="M312.846 469.838L72.4627 380.626L220.598 48.629L460.981 137.836L312.846 469.838Z" fill="white"/>
</mask>
<g mask="url(#mask26_1_2)">
<mask id="mask27_1_2" style="mask-type:luminance" maskUnits="userSpaceOnUse" x="72" y="48" width="389" height="422">
<path d="M312.846 469.838L72.4627 380.626L220.598 48.629L460.981 137.836L312.846 469.838Z" fill="white"/>
</mask>
<g mask="url(#mask27_1_2)">
<path d="M220.514 86.6657C215.263 90.2218 213.511 96.2079 212.209 101.773C210.724 108.165 210.162 114.694 209.462 121.197C208.216 132.89 206.869 144.573 206.135 156.297C205.434 167.35 205.835 178.43 205.201 189.479C204.961 193.892 204.516 198.29 203.994 202.678C203.387 207.908 202.503 213.134 202.119 218.369C201.735 223.604 201.924 228.723 202.091 233.922C202.197 237.757 202.38 241.892 201.107 245.57C200.834 246.341 200.489 247.087 200.066 247.802C199.688 248.446 200.801 248.862 201.179 248.213C203.026 245.093 203.287 241.415 203.326 237.93C203.387 233.166 203.048 228.393 203.12 223.634C203.259 213.641 205.345 203.759 206.146 193.811C207.014 183.127 206.58 172.479 207.064 161.806C207.587 150.458 208.788 139.15 209.99 127.858C210.68 121.476 211.219 115.069 212.165 108.723C212.627 105.441 213.305 102.194 214.195 98.9878C215.041 96.0608 216.031 93.1083 217.994 90.6327C218.912 89.4507 220.008 88.4311 221.282 87.5636C221.899 87.1426 221.165 86.2802 220.548 86.6961L220.514 86.6657Z" fill="black"/>
</g>
</g>
</g>
</g>
<mask id="mask28_1_2" style="mask-type:luminance" maskUnits="userSpaceOnUse" x="234" y="89" width="11" height="132">
<path d="M234.96 89.608H244.928V220.773H234.96V89.608Z" fill="white"/>
</mask>
<g mask="url(#mask28_1_2)">
<mask id="mask29_1_2" style="mask-type:luminance" maskUnits="userSpaceOnUse" x="72" y="48" width="389" height="422">
<path d="M312.846 469.838L72.4627 380.626L220.598 48.629L460.981 137.836L312.846 469.838Z" fill="white"/>
</mask>
<g mask="url(#mask29_1_2)">
<mask id="mask30_1_2" style="mask-type:luminance" maskUnits="userSpaceOnUse" x="72" y="48" width="389" height="422">
<path d="M312.846 469.838L72.4627 380.626L220.598 48.629L460.981 137.836L312.846 469.838Z" fill="white"/>
</mask>
<g mask="url(#mask30_1_2)">
<mask id="mask31_1_2" style="mask-type:luminance" maskUnits="userSpaceOnUse" x="72" y="48" width="389" height="422">
<path d="M312.846 469.838L72.4627 380.626L220.598 48.629L460.981 137.836L312.846 469.838Z" fill="white"/>
</mask>
<g mask="url(#mask31_1_2)">
<path d="M244.294 219.317C243.71 218.293 243.315 217.217 243.103 216.081C242.67 214.351 242.347 212.657 242.08 210.901C241.44 206.731 241.012 202.572 240.667 198.392C240.389 195.145 240.166 191.919 240.05 188.682C239.944 185.735 239.855 182.777 240.044 179.835C240.166 177.993 240.495 176.172 240.617 174.331C240.867 170.491 240.89 166.655 240.873 162.815C240.951 159.401 240.823 155.992 240.484 152.593C239.321 143.949 239.021 135.279 239.577 126.584C240.339 115.952 242.347 104.888 238.932 94.4679C238.526 93.1793 238.003 91.9263 237.38 90.7088C237.046 90.0747 235.933 90.4958 236.273 91.1299C238.893 96.081 239.588 101.854 239.649 107.277C239.71 112.7 239.082 118.224 238.609 123.688C238.108 129.557 238.003 135.442 238.303 141.326C238.448 144.872 238.681 148.474 239.182 152C239.527 154.907 239.694 157.824 239.666 160.751C239.71 164.738 239.694 168.735 239.516 172.718C239.46 173.986 239.388 175.249 239.204 176.492C238.793 179.759 238.653 183.031 238.798 186.313C238.876 189.636 239.06 192.969 239.304 196.291C239.616 200.461 240.005 204.636 240.567 208.781C241.012 212.088 241.429 215.533 242.675 218.668C242.848 219.13 243.076 219.566 243.348 219.987C243.754 220.586 244.7 219.916 244.299 219.317H244.294Z" fill="black"/>
</g>
</g>
</g>
</g>
<mask id="mask32_1_2" style="mask-type:luminance" maskUnits="userSpaceOnUse" x="180" y="180" width="55" height="261">
<path d="M180.848 180.515H234.96V440.248H180.848V180.515Z" fill="white"/>
</mask>
<g mask="url(#mask32_1_2)">
<mask id="mask33_1_2" style="mask-type:luminance" maskUnits="userSpaceOnUse" x="72" y="48" width="389" height="422">
<path d="M312.846 469.838L72.4627 380.626L220.598 48.629L460.981 137.836L312.846 469.838Z" fill="white"/>
</mask>
<g mask="url(#mask33_1_2)">
<mask id="mask34_1_2" style="mask-type:luminance" maskUnits="userSpaceOnUse" x="72" y="48" width="389" height="422">
<path d="M312.846 469.838L72.4627 380.626L220.598 48.629L460.981 137.836L312.846 469.838Z" fill="white"/>
</mask>
<g mask="url(#mask34_1_2)">
<mask id="mask35_1_2" style="mask-type:luminance" maskUnits="userSpaceOnUse" x="72" y="48" width="389" height="422">
<path d="M312.846 469.838L72.4627 380.626L220.598 48.629L460.981 137.836L312.846 469.838Z" fill="white"/>
</mask>
<g mask="url(#mask35_1_2)">
<path d="M181.933 181.484C182.673 186.602 183.312 191.731 184.002 196.855C184.686 201.978 185.482 207.097 185.771 212.256C186.405 221.656 186.227 231.041 185.237 240.411C184.786 244.433 184.658 248.568 186.388 252.383C187.423 254.671 189.053 256.654 190.321 258.825C191.567 261.022 192.613 263.295 193.469 265.638C196.601 273.816 198.726 282.247 201.001 290.638C203.282 299.033 205.607 307.287 209.3 315.135C211.047 318.975 213.194 322.617 215.747 326.062C218.656 329.902 222.005 333.463 223.707 337.932C225.304 342.102 225.749 346.551 226.277 350.924C226.705 354.414 227.095 357.915 227.445 361.42C228.263 369.587 228.958 377.709 229.576 385.876C230.788 402.013 231.801 418.171 232.613 434.348C232.702 435.956 232.78 437.57 232.852 439.193C232.885 439.898 234.076 439.746 234.042 439.041C233.286 423.345 232.351 407.665 231.239 391.989C230.655 383.634 229.976 375.274 229.192 366.914C228.496 359.477 227.84 351.989 226.633 344.608C226.038 340.164 224.48 336.015 221.955 332.17C219.279 328.299 216.031 324.829 213.622 320.796C209.117 313.263 206.319 304.974 203.927 296.71C201.541 288.446 199.594 280.116 196.957 271.934C195.539 267.53 194.014 263.026 191.745 258.937C190.549 256.796 188.953 254.843 187.84 252.657C186.8 250.572 186.244 248.385 186.16 246.097C185.954 241.912 186.995 237.757 187.128 233.598C187.312 228.778 187.284 223.934 187.217 219.104C187.089 208.837 185.454 198.706 184.097 188.525C183.774 186.125 183.462 183.731 183.123 181.336C183.095 181.189 183.017 181.068 182.889 180.976C182.756 180.885 182.606 180.849 182.444 180.87C182.278 180.89 182.15 180.961 182.05 181.083C181.949 181.2 181.91 181.336 181.933 181.484Z" fill="black"/>
</g>
</g>
</g>
</g>
<mask id="mask36_1_2" style="mask-type:luminance" maskUnits="userSpaceOnUse" x="183" y="155" width="25" height="21">
<path d="M183.696 155.84H207.904V175.32H183.696V155.84Z" fill="white"/>
</mask>
<g mask="url(#mask36_1_2)">
<mask id="mask37_1_2" style="mask-type:luminance" maskUnits="userSpaceOnUse" x="72" y="48" width="389" height="422">
<path d="M312.846 469.838L72.4627 380.626L220.598 48.629L460.981 137.836L312.846 469.838Z" fill="white"/>
</mask>
<g mask="url(#mask37_1_2)">
<mask id="mask38_1_2" style="mask-type:luminance" maskUnits="userSpaceOnUse" x="72" y="48" width="389" height="422">
<path d="M312.846 469.838L72.4627 380.626L220.598 48.629L460.981 137.836L312.846 469.838Z" fill="white"/>
</mask>
<g mask="url(#mask38_1_2)">
<mask id="mask39_1_2" style="mask-type:luminance" maskUnits="userSpaceOnUse" x="72" y="48" width="389" height="422">
<path d="M312.846 469.838L72.4627 380.626L220.598 48.629L460.981 137.836L312.846 469.838Z" fill="white"/>
</mask>
<g mask="url(#mask39_1_2)">
<path d="M206.747 174.503C206.063 172.124 205.028 169.882 203.638 167.777C202.247 165.666 200.556 163.779 198.57 162.115C194.91 158.924 189.542 155.926 184.252 156.53C184.085 156.555 183.952 156.626 183.857 156.748C183.757 156.87 183.718 157.002 183.741 157.154C183.768 157.301 183.846 157.423 183.98 157.514C184.108 157.605 184.258 157.641 184.425 157.621C189.392 157.042 194.421 160 197.841 162.983C199.71 164.55 201.307 166.321 202.62 168.304C203.932 170.283 204.917 172.388 205.573 174.62C205.751 175.305 206.953 175.132 206.764 174.473L206.747 174.503Z" fill="black"/>
</g>
</g>
</g>
</g>
<mask id="mask40_1_2" style="mask-type:luminance" maskUnits="userSpaceOnUse" x="318" y="141" width="17" height="31">
<path d="M318.976 141.555H334.64V171.424H318.976V141.555Z" fill="white"/>
</mask>
<g mask="url(#mask40_1_2)">
<mask id="mask41_1_2" style="mask-type:luminance" maskUnits="userSpaceOnUse" x="72" y="48" width="389" height="422">
<path d="M312.846 469.838L72.4627 380.626L220.598 48.629L460.981 137.836L312.846 469.838Z" fill="white"/>
</mask>
<g mask="url(#mask41_1_2)">
<mask id="mask42_1_2" style="mask-type:luminance" maskUnits="userSpaceOnUse" x="72" y="48" width="389" height="422">
<path d="M312.846 469.838L72.4627 380.626L220.598 48.629L460.981 137.836L312.846 469.838Z" fill="white"/>
</mask>
<g mask="url(#mask42_1_2)">
<mask id="mask43_1_2" style="mask-type:luminance" maskUnits="userSpaceOnUse" x="72" y="48" width="389" height="422">
<path d="M312.846 469.838L72.4627 380.626L220.598 48.629L460.981 137.836L312.846 469.838Z" fill="white"/>
</mask>
<g mask="url(#mask43_1_2)">
<path d="M331.436 146.293C333.133 149.681 333.555 154.07 333.984 157.458C334.301 159.376 334.451 161.304 334.434 163.241C334.367 164.672 334.584 166.275 334.017 167.629C332.643 170.901 326.953 172.089 323.76 170.369C321.707 169.283 320.689 167.071 320.333 164.941C319.86 161.496 319.61 158.031 319.593 154.557C319.516 152.167 319.376 149.824 319.477 147.439C319.443 146.465 319.632 145.527 320.044 144.629C321.118 142.671 323.954 142.021 326.374 142.26C326.992 142.3 327.581 142.432 328.154 142.65C328.805 142.96 329.356 143.376 329.806 143.903C330.457 144.639 331.002 145.435 331.436 146.293Z" fill="black"/>
</g>
</g>
</g>
</g>
<mask id="mask44_1_2" style="mask-type:luminance" maskUnits="userSpaceOnUse" x="317" y="141" width="20" height="32">
<path d="M317.552 141.555H336.064V172.723H317.552V141.555Z" fill="white"/>
</mask>
<g mask="url(#mask44_1_2)">
<mask id="mask45_1_2" style="mask-type:luminance" maskUnits="userSpaceOnUse" x="72" y="48" width="389" height="422">
<path d="M312.846 469.838L72.4627 380.626L220.598 48.629L460.981 137.836L312.846 469.838Z" fill="white"/>
</mask>
<g mask="url(#mask45_1_2)">
<mask id="mask46_1_2" style="mask-type:luminance" maskUnits="userSpaceOnUse" x="72" y="48" width="389" height="422">
<path d="M312.846 469.838L72.4627 380.626L220.598 48.629L460.981 137.836L312.846 469.838Z" fill="white"/>
</mask>
<g mask="url(#mask46_1_2)">
<mask id="mask47_1_2" style="mask-type:luminance" maskUnits="userSpaceOnUse" x="72" y="48" width="389" height="422">
<path d="M312.846 469.838L72.4627 380.626L220.598 48.629L460.981 137.836L312.846 469.838Z" fill="white"/>
</mask>
<g mask="url(#mask47_1_2)">
<path d="M330.852 146.496C332.782 150.447 333.071 154.952 333.583 159.198C333.756 160.512 333.833 161.831 333.817 163.155C333.872 164.322 333.817 165.484 333.661 166.64C333.255 168.659 331.291 169.897 329.2 170.359C327.281 170.785 324.972 170.653 323.387 169.451C321.44 167.995 320.978 165.646 320.7 163.515C320.394 161.045 320.305 158.595 320.211 156.124C320.122 153.654 319.988 151.148 320.016 148.667C320.033 147.328 319.916 145.669 320.778 144.502C321.563 143.574 322.597 143.026 323.871 142.858C325.245 142.564 326.591 142.65 327.909 143.122C329.356 143.751 330.218 145.268 330.852 146.496C331.175 147.13 332.287 146.709 331.959 146.07C331.397 144.888 330.624 143.837 329.634 142.919C328.594 142.082 327.381 141.656 325.996 141.651C323.765 141.534 321.173 142.067 319.833 143.843C319.109 144.979 318.781 146.207 318.859 147.52C318.804 148.981 318.837 150.437 318.881 151.903C318.976 154.871 319.032 157.859 319.226 160.822C319.415 163.378 319.543 166.184 320.995 168.477C321.551 169.39 322.313 170.125 323.281 170.688C324.244 171.246 325.301 171.566 326.446 171.637C327.592 171.744 328.716 171.647 329.823 171.353C330.93 171.064 331.937 170.592 332.843 169.948C335.029 168.274 334.963 166.016 335.013 163.591C334.979 160.553 334.701 157.529 334.184 154.526C333.883 151.599 333.127 148.779 331.914 146.054C331.67 145.435 330.568 145.862 330.852 146.496Z" fill="black"/>
</g>
</g>
</g>
</g>
<mask id="mask48_1_2" style="mask-type:luminance" maskUnits="userSpaceOnUse" x="276" y="85" width="19" height="35">
<path d="M276.256 85.712H294.768V119.477H276.256V85.712Z" fill="white"/>
</mask>
<g mask="url(#mask48_1_2)">
<mask id="mask49_1_2" style="mask-type:luminance" maskUnits="userSpaceOnUse" x="72" y="48" width="389" height="422">
<path d="M312.846 469.838L72.4627 380.626L220.598 48.629L460.981 137.836L312.846 469.838Z" fill="white"/>
</mask>
<g mask="url(#mask49_1_2)">
<mask id="mask50_1_2" style="mask-type:luminance" maskUnits="userSpaceOnUse" x="72" y="48" width="389" height="422">
<path d="M312.846 469.838L72.4627 380.626L220.598 48.629L460.981 137.836L312.846 469.838Z" fill="white"/>
</mask>
<g mask="url(#mask50_1_2)">
<mask id="mask51_1_2" style="mask-type:luminance" maskUnits="userSpaceOnUse" x="72" y="48" width="389" height="422">
<path d="M312.846 469.838L72.4627 380.626L220.598 48.629L460.981 137.836L312.846 469.838Z" fill="white"/>
</mask>
<g mask="url(#mask51_1_2)">
<path d="M290.646 91.0081C291.97 95.0563 292.905 99.1806 293.444 103.376C293.795 105.501 293.961 107.637 293.945 109.788C293.872 111.376 294.106 113.162 293.494 114.663C291.976 118.29 285.684 119.579 282.136 117.697C279.861 116.494 278.715 114.07 278.325 111.685C277.802 107.86 277.53 104.02 277.502 100.165C277.402 97.1413 277.046 94.0062 277.847 91.0233C279.416 85.1083 288.805 85.3112 290.646 91.0081Z" fill="black"/>
<path d="M290.107 91.1907C291.008 93.9859 291.731 96.8166 292.27 99.6879C292.866 102.605 293.222 105.547 293.35 108.515C293.416 110.001 293.389 111.482 293.261 112.964C293.172 114.227 292.626 115.292 291.62 116.16C290.674 116.89 289.606 117.408 288.41 117.717C287.22 118.026 286.007 118.092 284.783 117.925C281.919 117.56 280.116 115.657 279.299 113.233C278.37 110.463 278.342 107.373 278.225 104.492C278.092 101.484 277.897 98.4704 277.925 95.4774C277.93 93.225 278.003 90.4602 279.849 88.7456C283.081 85.7424 288.794 87.3962 290.107 91.2263C290.34 91.901 291.442 91.4698 291.214 90.8001C291.047 90.3486 290.83 89.9174 290.563 89.5015C290.301 89.0906 289.99 88.7101 289.634 88.355C289.283 87.9999 288.888 87.6854 288.466 87.4063C288.037 87.1273 287.587 86.8889 287.103 86.6961C286.625 86.5034 286.124 86.3613 285.612 86.2599C285.1 86.1635 284.578 86.1178 284.055 86.1178C283.532 86.1178 283.009 86.1686 282.497 86.2649C281.985 86.3664 281.49 86.5135 281.012 86.7063C280 87.1426 279.16 87.7665 278.481 88.568C277.797 89.3746 277.357 90.2776 277.157 91.277C276.367 94.5338 276.835 97.9529 276.94 101.255C276.951 104.771 277.213 108.276 277.719 111.766C278.181 114.349 279.438 117.042 282.108 118.316C286.78 120.538 293.923 118.194 294.473 113.106C294.74 109.337 294.523 105.588 293.822 101.859C293.249 98.1153 292.376 94.4323 291.191 90.8103C290.98 90.1204 289.884 90.5516 290.107 91.1907Z" fill="black"/>
</g>
</g>
</g>
</g>
<mask id="mask52_1_2" style="mask-type:luminance" maskUnits="userSpaceOnUse" x="252" y="66" width="19" height="34">
<path d="M252.048 66.232H270.56V99.9973H252.048V66.232Z" fill="white"/>
</mask>
<g mask="url(#mask52_1_2)">
<mask id="mask53_1_2" style="mask-type:luminance" maskUnits="userSpaceOnUse" x="72" y="48" width="389" height="422">
<path d="M312.846 469.838L72.4627 380.626L220.598 48.629L460.981 137.836L312.846 469.838Z" fill="white"/>
</mask>
<g mask="url(#mask53_1_2)">
<mask id="mask54_1_2" style="mask-type:luminance" maskUnits="userSpaceOnUse" x="72" y="48" width="389" height="422">
<path d="M312.846 469.838L72.4627 380.626L220.598 48.629L460.981 137.836L312.846 469.838Z" fill="white"/>
</mask>
<g mask="url(#mask54_1_2)">
<mask id="mask55_1_2" style="mask-type:luminance" maskUnits="userSpaceOnUse" x="72" y="48" width="389" height="422">
<path d="M312.846 469.838L72.4627 380.626L220.598 48.629L460.981 137.836L312.846 469.838Z" fill="white"/>
</mask>
<g mask="url(#mask55_1_2)">
<path d="M266.878 71.4926C267.979 75.7741 268.669 80.1064 268.947 84.4945C269.169 86.7215 269.197 88.9536 269.041 91.1806C268.852 92.8242 268.98 94.691 268.224 96.2129C266.394 99.8959 259.774 100.885 256.209 98.7291C253.928 97.3543 252.921 94.7468 252.66 92.2662C252.371 88.2687 252.348 84.2662 252.582 80.2637C252.677 77.1083 252.51 73.8363 253.544 70.7824C255.597 64.7355 265.337 65.4863 266.878 71.4926Z" fill="black"/>
</g>
</g>
</g>
</g>
<mask id="mask56_1_2" style="mask-type:luminance" maskUnits="userSpaceOnUse" x="250" y="64" width="21" height="38">
<path d="M250.624 64.9333H270.56V101.296H250.624V64.9333Z" fill="white"/>
</mask>
<g mask="url(#mask56_1_2)">
<mask id="mask57_1_2" style="mask-type:luminance" maskUnits="userSpaceOnUse" x="72" y="48" width="389" height="422">
<path d="M312.846 469.838L72.4627 380.626L220.598 48.629L460.981 137.836L312.846 469.838Z" fill="white"/>
</mask>
<g mask="url(#mask57_1_2)">
<mask id="mask58_1_2" style="mask-type:luminance" maskUnits="userSpaceOnUse" x="72" y="48" width="389" height="422">
<path d="M312.846 469.838L72.4627 380.626L220.598 48.629L460.981 137.836L312.846 469.838Z" fill="white"/>
</mask>
<g mask="url(#mask58_1_2)">
<mask id="mask59_1_2" style="mask-type:luminance" maskUnits="userSpaceOnUse" x="72" y="48" width="389" height="422">
<path d="M312.846 469.838L72.4627 380.626L220.598 48.629L460.981 137.836L312.846 469.838Z" fill="white"/>
</mask>
<g mask="url(#mask59_1_2)">
<path d="M266.277 71.5687C267.039 74.5465 267.606 77.5497 267.985 80.5833C268.441 83.7538 268.624 86.9346 268.524 90.1254C268.374 92.7684 268.602 96.0202 266.06 97.8008C265.02 98.4754 263.868 98.932 262.611 99.1603C261.354 99.3936 260.102 99.3784 258.851 99.1248C255.953 98.5668 254.223 96.4564 253.567 93.925C252.81 91.003 252.977 87.802 253.044 84.8293C253.105 81.8566 253.116 78.6302 253.311 75.5509C253.455 73.1717 253.711 70.1939 255.775 68.5199C259.257 65.6486 265.17 67.5053 266.277 71.5687C266.46 72.2434 267.656 72.0811 267.473 71.4165C267.339 70.9397 267.15 70.4831 266.911 70.0418C266.672 69.6004 266.388 69.1895 266.054 68.804C265.721 68.4133 265.348 68.0633 264.936 67.7488C264.525 67.4292 264.08 67.1553 263.601 66.9219C263.128 66.6936 262.633 66.5059 262.116 66.3639C261.599 66.2269 261.07 66.1356 260.531 66.095C259.997 66.0544 259.463 66.0697 258.923 66.1305C258.389 66.1914 257.866 66.2979 257.36 66.4603C251.013 68.4133 252.098 76.4488 251.942 81.2174C251.748 84.8192 251.781 88.4108 252.042 92.0075C252.298 94.7063 253.305 97.6638 255.953 99.206C260.242 101.702 267.823 100.266 269.164 95.3759C269.603 93.4025 269.798 91.4139 269.753 89.4051C269.787 87.4013 269.614 85.4178 269.475 83.3937C269.147 79.3506 268.485 75.3531 267.478 71.4013C267.3 70.7317 266.077 70.8636 266.277 71.5687Z" fill="black"/>
</g>
</g>
</g>
</g>
<mask id="mask60_1_2" style="mask-type:luminance" maskUnits="userSpaceOnUse" x="219" y="74" width="19" height="34">
<path d="M219.296 74.024H237.808V107.789H219.296V74.024Z" fill="white"/>
</mask>
<g mask="url(#mask60_1_2)">
<mask id="mask61_1_2" style="mask-type:luminance" maskUnits="userSpaceOnUse" x="72" y="48" width="389" height="422">
<path d="M312.846 469.838L72.4627 380.626L220.598 48.629L460.981 137.836L312.846 469.838Z" fill="white"/>
</mask>
<g mask="url(#mask61_1_2)">
<mask id="mask62_1_2" style="mask-type:luminance" maskUnits="userSpaceOnUse" x="72" y="48" width="389" height="422">
<path d="M312.846 469.838L72.4627 380.626L220.598 48.629L460.981 137.836L312.846 469.838Z" fill="white"/>
</mask>
<g mask="url(#mask62_1_2)">
<mask id="mask63_1_2" style="mask-type:luminance" maskUnits="userSpaceOnUse" x="72" y="48" width="389" height="422">
<path d="M312.846 469.838L72.4627 380.626L220.598 48.629L460.981 137.836L312.846 469.838Z" fill="white"/>
</mask>
<g mask="url(#mask63_1_2)">
<path d="M235.833 79.7006C236.573 84.0481 236.901 88.4159 236.818 92.8141C236.857 95.0462 236.695 97.2732 236.351 99.485C236.028 101.113 236 102.975 235.121 104.446C232.996 107.992 226.305 108.515 222.928 106.12C220.77 104.593 219.98 101.925 219.93 99.4393C219.969 95.4418 220.275 91.4647 220.831 87.5027C221.193 84.3575 221.304 81.0855 222.583 78.1178C225.142 72.2028 234.804 73.6029 235.833 79.7006Z" fill="black"/>
</g>
</g>
</g>
</g>
<mask id="mask64_1_2" style="mask-type:luminance" maskUnits="userSpaceOnUse" x="219" y="72" width="19" height="38">
<path d="M219.296 72.7253H237.808V109.088H219.296V72.7253Z" fill="white"/>
</mask>
<g mask="url(#mask64_1_2)">
<mask id="mask65_1_2" style="mask-type:luminance" maskUnits="userSpaceOnUse" x="72" y="48" width="389" height="422">
<path d="M312.846 469.838L72.4627 380.626L220.598 48.629L460.981 137.836L312.846 469.838Z" fill="white"/>
</mask>
<g mask="url(#mask65_1_2)">
<mask id="mask66_1_2" style="mask-type:luminance" maskUnits="userSpaceOnUse" x="72" y="48" width="389" height="422">
<path d="M312.846 469.838L72.4627 380.626L220.598 48.629L460.981 137.836L312.846 469.838Z" fill="white"/>
</mask>
<g mask="url(#mask66_1_2)">
<mask id="mask67_1_2" style="mask-type:luminance" maskUnits="userSpaceOnUse" x="72" y="48" width="389" height="422">
<path d="M312.846 469.838L72.4627 380.626L220.598 48.629L460.981 137.836L312.846 469.838Z" fill="white"/>
</mask>
<g mask="url(#mask67_1_2)">
<path d="M235.233 79.7868C235.744 82.8052 236.061 85.8439 236.184 88.8978C236.373 92.0836 236.284 95.2694 235.917 98.445C235.55 101.063 235.494 104.279 232.83 105.877C231.745 106.481 230.571 106.856 229.309 107.003C228.046 107.15 226.8 107.059 225.582 106.729C218.957 104.959 220.431 96.8724 220.92 92.1445C221.248 88.9688 221.515 85.7627 221.994 82.6074C222.361 80.2434 222.895 77.3772 225.17 75.8756C228.964 73.3544 234.487 75.7336 235.233 79.7868C235.366 80.4768 236.556 80.3296 236.429 79.6296C236.328 79.1527 236.184 78.686 235.984 78.2345C235.778 77.783 235.533 77.3569 235.233 76.9511C234.938 76.5503 234.593 76.1749 234.215 75.835C233.831 75.4951 233.419 75.1908 232.969 74.927C232.518 74.6632 232.045 74.4451 231.545 74.2726C231.044 74.095 230.532 73.9682 230.004 73.8921C229.475 73.8109 228.947 73.7805 228.413 73.8008C227.879 73.8211 227.351 73.8921 226.833 74.0088C220.303 75.5154 220.714 83.627 220.158 88.4311C219.624 92.114 219.357 95.8173 219.352 99.5306C219.435 102.204 220.308 105.146 222.862 106.754C227.05 109.397 234.621 108.358 236.217 103.503C236.757 101.616 237.09 99.698 237.224 97.75C237.435 95.6904 237.441 93.6105 237.408 91.5306C237.402 87.5383 237.068 83.5712 236.412 79.6245C236.373 79.4926 236.289 79.3861 236.162 79.3151C236.034 79.239 235.895 79.2085 235.744 79.2288C235.594 79.2491 235.472 79.3151 235.372 79.4216C235.277 79.5281 235.233 79.6499 235.233 79.7868Z" fill="black"/>
</g>
</g>
</g>
</g>
<mask id="mask68_1_2" style="mask-type:luminance" maskUnits="userSpaceOnUse" x="173" y="150" width="17" height="32">
<path d="M173.728 150.645H189.392V181.813H173.728V150.645Z" fill="white"/>
</mask>
<g mask="url(#mask68_1_2)">
<mask id="mask69_1_2" style="mask-type:luminance" maskUnits="userSpaceOnUse" x="72" y="48" width="389" height="422">
<path d="M312.846 469.838L72.4627 380.626L220.598 48.629L460.981 137.836L312.846 469.838Z" fill="white"/>
</mask>
<g mask="url(#mask69_1_2)">
<mask id="mask70_1_2" style="mask-type:luminance" maskUnits="userSpaceOnUse" x="72" y="48" width="389" height="422">
<path d="M312.846 469.838L72.4627 380.626L220.598 48.629L460.981 137.836L312.846 469.838Z" fill="white"/>
</mask>
<g mask="url(#mask70_1_2)">
<mask id="mask71_1_2" style="mask-type:luminance" maskUnits="userSpaceOnUse" x="72" y="48" width="389" height="422">
<path d="M312.846 469.838L72.4627 380.626L220.598 48.629L460.981 137.836L312.846 469.838Z" fill="white"/>
</mask>
<g mask="url(#mask71_1_2)">
<path d="M176.498 151.249L176.27 151.345C175.836 151.498 175.497 151.756 175.247 152.111C174.151 153.978 175.063 158.336 175.347 160.35C175.986 164.332 176.854 168.274 177.944 172.175C178.584 174.676 179.468 177.101 180.603 179.449C181.004 180.231 181.816 181.245 182.528 181.408C183.156 181.494 183.785 181.479 184.414 181.362C185.037 181.25 185.621 181.042 186.166 180.743C186.711 180.444 187.184 180.068 187.59 179.617C187.99 179.17 188.302 178.673 188.513 178.125C189.609 175.239 189.648 172.337 188.619 169.43L185.888 161.75C184.97 158.823 183.696 156.028 182.066 153.369C180.687 151.234 178.979 150.275 176.498 151.249Z" fill="black"/>
</g>
</g>
</g>
</g>
<mask id="mask72_1_2" style="mask-type:luminance" maskUnits="userSpaceOnUse" x="173" y="149" width="18" height="35">
<path d="M173.728 149.347H190.816V183.112H173.728V149.347Z" fill="white"/>
</mask>
<g mask="url(#mask72_1_2)">
<mask id="mask73_1_2" style="mask-type:luminance" maskUnits="userSpaceOnUse" x="72" y="48" width="389" height="422">
<path d="M312.846 469.838L72.4627 380.626L220.598 48.629L460.981 137.836L312.846 469.838Z" fill="white"/>
</mask>
<g mask="url(#mask73_1_2)">
<mask id="mask74_1_2" style="mask-type:luminance" maskUnits="userSpaceOnUse" x="72" y="48" width="389" height="422">
<path d="M312.846 469.838L72.4627 380.626L220.598 48.629L460.981 137.836L312.846 469.838Z" fill="white"/>
</mask>
<g mask="url(#mask74_1_2)">
<mask id="mask75_1_2" style="mask-type:luminance" maskUnits="userSpaceOnUse" x="72" y="48" width="389" height="422">
<path d="M312.846 469.838L72.4627 380.626L220.598 48.629L460.981 137.836L312.846 469.838Z" fill="white"/>
</mask>
<g mask="url(#mask75_1_2)">
<path d="M176.259 150.757C175.786 150.919 175.386 151.168 175.057 151.508C174.724 151.848 174.496 152.238 174.379 152.68C174.14 153.613 174.051 154.557 174.117 155.51C174.268 157.732 174.568 159.944 175.018 162.135C175.525 164.986 176.164 167.817 176.899 170.628C177.561 173.402 178.462 176.111 179.596 178.754C180.414 180.55 181.499 182.245 183.863 182.037C184.909 181.93 185.865 181.605 186.733 181.063C187.601 180.52 188.274 179.825 188.758 178.972C191.684 173.823 188.68 167.873 186.917 162.876C185.949 159.761 184.664 156.763 183.062 153.872C182.433 152.614 181.488 151.594 180.225 150.818C179.602 150.524 178.94 150.376 178.239 150.366C177.544 150.361 176.876 150.493 176.248 150.772C175.53 151.031 176.003 152.04 176.715 151.777C177.294 151.513 177.905 151.416 178.551 151.487C179.196 151.558 179.763 151.787 180.258 152.172C181.237 153.085 181.994 154.13 182.539 155.307C183.651 157.468 184.58 159.685 185.331 161.968C186.205 164.413 187.084 166.863 187.94 169.319C188.78 171.617 188.953 173.95 188.452 176.324C187.996 178.349 186.9 180.185 184.592 180.799C183.918 181.012 183.24 181.027 182.561 180.829C181.454 180.418 180.926 178.8 180.525 177.882C178.601 173.473 177.538 168.69 176.615 164.038C176.181 161.872 175.792 159.685 175.502 157.499C175.352 156.464 175.291 155.424 175.324 154.374C175.38 153.263 175.508 152.264 176.732 151.751C177.394 151.462 176.971 150.473 176.259 150.757Z" fill="black"/>
</g>
</g>
</g>
</g>
<mask id="mask76_1_2" style="mask-type:luminance" maskUnits="userSpaceOnUse" x="287" y="179" width="11" height="5">
<path d="M287.648 179.216H297.616V183.112H287.648V179.216Z" fill="white"/>
</mask>
<g mask="url(#mask76_1_2)">
<mask id="mask77_1_2" style="mask-type:luminance" maskUnits="userSpaceOnUse" x="72" y="48" width="389" height="422">
<path d="M312.846 469.838L72.4627 380.626L220.598 48.629L460.981 137.836L312.846 469.838Z" fill="white"/>
</mask>
<g mask="url(#mask77_1_2)">
<mask id="mask78_1_2" style="mask-type:luminance" maskUnits="userSpaceOnUse" x="72" y="48" width="389" height="422">
<path d="M312.846 469.838L72.4627 380.626L220.598 48.629L460.981 137.836L312.846 469.838Z" fill="white"/>
</mask>
<g mask="url(#mask78_1_2)">
<mask id="mask79_1_2" style="mask-type:luminance" maskUnits="userSpaceOnUse" x="72" y="48" width="389" height="422">
<path d="M312.846 469.838L72.4627 380.626L220.598 48.629L460.981 137.836L312.846 469.838Z" fill="white"/>
</mask>
<g mask="url(#mask79_1_2)">
<path d="M295.497 180.966C294.334 181.255 293.155 181.342 291.953 181.225C290.757 181.108 289.623 180.799 288.549 180.297C287.826 179.977 287.414 181.002 288.093 181.311C289.317 181.864 290.607 182.199 291.965 182.316C293.322 182.427 294.657 182.316 295.964 181.976C296.12 181.915 296.225 181.818 296.287 181.676C296.353 181.539 296.348 181.397 296.287 181.26C296.22 181.123 296.109 181.027 295.958 180.966C295.803 180.91 295.652 180.91 295.497 180.966Z" fill="black"/>
</g>
</g>
</g>
</g>
<mask id="mask80_1_2" style="mask-type:luminance" maskUnits="userSpaceOnUse" x="254" y="157" width="11" height="5">
<path d="M254.896 157.139H264.864V161.035H254.896V157.139Z" fill="white"/>
</mask>
<g mask="url(#mask80_1_2)">
<mask id="mask81_1_2" style="mask-type:luminance" maskUnits="userSpaceOnUse" x="72" y="48" width="389" height="422">
<path d="M312.846 469.838L72.4627 380.626L220.598 48.629L460.981 137.836L312.846 469.838Z" fill="white"/>
</mask>
<g mask="url(#mask81_1_2)">
<mask id="mask82_1_2" style="mask-type:luminance" maskUnits="userSpaceOnUse" x="72" y="48" width="389" height="422">
<path d="M312.846 469.838L72.4627 380.626L220.598 48.629L460.981 137.836L312.846 469.838Z" fill="white"/>
</mask>
<g mask="url(#mask82_1_2)">
<mask id="mask83_1_2" style="mask-type:luminance" maskUnits="userSpaceOnUse" x="72" y="48" width="389" height="422">
<path d="M312.846 469.838L72.4627 380.626L220.598 48.629L460.981 137.836L312.846 469.838Z" fill="white"/>
</mask>
<g mask="url(#mask83_1_2)">
<path d="M263.802 158.732C261.148 159.285 258.517 159.193 255.919 158.458C255.196 158.239 254.707 159.239 255.469 159.467C258.267 160.279 261.098 160.39 263.957 159.802C264.703 159.65 264.519 158.554 263.785 158.726L263.802 158.732Z" fill="black"/>
</g>
</g>
</g>
</g>
<mask id="mask84_1_2" style="mask-type:luminance" maskUnits="userSpaceOnUse" x="217" y="166" width="11" height="5">
<path d="M217.872 166.229H227.84V170.125H217.872V166.229Z" fill="white"/>
</mask>
<g mask="url(#mask84_1_2)">
<mask id="mask85_1_2" style="mask-type:luminance" maskUnits="userSpaceOnUse" x="72" y="48" width="389" height="422">
<path d="M312.846 469.838L72.4627 380.626L220.598 48.629L460.981 137.836L312.846 469.838Z" fill="white"/>
</mask>
<g mask="url(#mask85_1_2)">
<mask id="mask86_1_2" style="mask-type:luminance" maskUnits="userSpaceOnUse" x="72" y="48" width="389" height="422">
<path d="M312.846 469.838L72.4627 380.626L220.598 48.629L460.981 137.836L312.846 469.838Z" fill="white"/>
</mask>
<g mask="url(#mask86_1_2)">
<mask id="mask87_1_2" style="mask-type:luminance" maskUnits="userSpaceOnUse" x="72" y="48" width="389" height="422">
<path d="M312.846 469.838L72.4627 380.626L220.598 48.629L460.981 137.836L312.846 469.838Z" fill="white"/>
</mask>
<g mask="url(#mask87_1_2)">
<path d="M226.366 167.766C224.046 168.208 221.76 168.096 219.507 167.432C218.745 167.193 218.295 168.208 219.057 168.441C221.51 169.187 224.002 169.324 226.533 168.857C227.289 168.715 227.089 167.619 226.36 167.771L226.366 167.766Z" fill="black"/>
</g>
</g>
</g>
</g>
<mask id="mask88_1_2" style="mask-type:luminance" maskUnits="userSpaceOnUse" x="284" y="237" width="6" height="10">
<path d="M284.8 237.656H289.072V246.747H284.8V237.656Z" fill="white"/>
</mask>
<g mask="url(#mask88_1_2)">
<mask id="mask89_1_2" style="mask-type:luminance" maskUnits="userSpaceOnUse" x="72" y="48" width="389" height="422">
<path d="M312.846 469.838L72.4627 380.626L220.598 48.629L460.981 137.836L312.846 469.838Z" fill="white"/>
</mask>
<g mask="url(#mask89_1_2)">
<mask id="mask90_1_2" style="mask-type:luminance" maskUnits="userSpaceOnUse" x="72" y="48" width="389" height="422">
<path d="M312.846 469.838L72.4627 380.626L220.598 48.629L460.981 137.836L312.846 469.838Z" fill="white"/>
</mask>
<g mask="url(#mask90_1_2)">
<mask id="mask91_1_2" style="mask-type:luminance" maskUnits="userSpaceOnUse" x="72" y="48" width="389" height="422">
<path d="M312.846 469.838L72.4627 380.626L220.598 48.629L460.981 137.836L312.846 469.838Z" fill="white"/>
</mask>
<g mask="url(#mask91_1_2)">
<path d="M285.573 238.427C285.445 239.731 285.568 241.019 285.94 242.288C286.313 243.556 286.919 244.728 287.754 245.803C288.204 246.376 289.155 245.707 288.71 245.133C287.965 244.18 287.425 243.135 287.092 242.003C286.758 240.872 286.647 239.726 286.764 238.564C286.836 237.859 285.645 237.727 285.573 238.427Z" fill="black"/>
</g>
</g>
</g>
</g>
<mask id="mask92_1_2" style="mask-type:luminance" maskUnits="userSpaceOnUse" x="240" y="235" width="7" height="11">
<path d="M240.656 235.059H246.352V245.448H240.656V235.059Z" fill="white"/>
</mask>
<g mask="url(#mask92_1_2)">
<mask id="mask93_1_2" style="mask-type:luminance" maskUnits="userSpaceOnUse" x="72" y="48" width="389" height="422">
<path d="M312.846 469.838L72.4627 380.626L220.598 48.629L460.981 137.836L312.846 469.838Z" fill="white"/>
</mask>
<g mask="url(#mask93_1_2)">
<mask id="mask94_1_2" style="mask-type:luminance" maskUnits="userSpaceOnUse" x="72" y="48" width="389" height="422">
<path d="M312.846 469.838L72.4627 380.626L220.598 48.629L460.981 137.836L312.846 469.838Z" fill="white"/>
</mask>
<g mask="url(#mask94_1_2)">
<mask id="mask95_1_2" style="mask-type:luminance" maskUnits="userSpaceOnUse" x="72" y="48" width="389" height="422">
<path d="M312.846 469.838L72.4627 380.626L220.598 48.629L460.981 137.836L312.846 469.838Z" fill="white"/>
</mask>
<g mask="url(#mask95_1_2)">
<path d="M241.813 236.494C241.479 237.874 241.507 239.244 241.896 240.614C242.286 241.978 242.998 243.191 244.027 244.246C244.127 244.352 244.26 244.418 244.416 244.439C244.572 244.454 244.717 244.423 244.845 244.347C244.967 244.251 245.039 244.134 245.056 243.987C245.078 243.845 245.039 243.713 244.945 243.596C244.016 242.653 243.37 241.562 243.026 240.335C242.675 239.107 242.658 237.869 242.97 236.636C242.992 236.484 242.948 236.352 242.842 236.231C242.742 236.114 242.608 236.043 242.442 236.028C242.28 236.007 242.13 236.048 242.002 236.139C241.869 236.236 241.796 236.357 241.774 236.504L241.813 236.494Z" fill="black"/>
</g>
</g>
</g>
</g>
<line x1="171.855" y1="155.479" x2="128.855" y2="142.479" stroke="black"/>
<path d="M90.3781 135.004C90.3781 134.66 90.6301 134.488 91.1341 134.488C91.3501 134.488 91.7621 134.496 92.3701 134.512C93.0421 134.544 93.5501 134.56 93.8941 134.56C94.1741 134.56 94.5141 134.544 94.9141 134.512C95.1861 134.496 95.3581 134.488 95.4301 134.488C95.8701 134.504 96.2421 134.584 96.5461 134.728C96.6341 134.768 96.7061 134.816 96.7621 134.872C96.8181 134.928 96.8461 135.02 96.8461 135.148C96.8461 135.324 96.7901 135.476 96.6781 135.604C96.5661 135.724 96.4301 135.784 96.2701 135.784C96.0941 135.784 95.8381 135.76 95.5021 135.712C95.2061 135.656 94.9461 135.628 94.7221 135.628C94.5061 135.628 94.3421 135.632 94.2301 135.64C94.2061 135.904 94.1941 136.536 94.1941 137.536C94.1941 138.728 94.2301 139.936 94.3021 141.16L94.3261 141.508C94.3261 141.836 94.1381 142 93.7621 142C93.4661 142 93.2661 141.932 93.1621 141.796C93.0581 141.652 93.0061 141.436 93.0061 141.148C93.0061 140.58 92.9901 139.872 92.9581 139.024C92.9261 138.32 92.9101 137.82 92.9101 137.524C92.9101 137.324 92.9341 136.712 92.9821 135.688L91.5781 135.7C91.1301 135.7 90.8181 135.66 90.6421 135.58C90.4661 135.492 90.3781 135.3 90.3781 135.004ZM99.0607 134.392C99.0607 134.6 99.0567 134.844 99.0487 135.124C99.0407 135.396 99.0327 135.604 99.0247 135.748C99.0007 136.156 98.9887 136.564 98.9887 136.972C98.9887 137.276 99.0007 137.592 99.0247 137.92C99.2727 137.56 99.5407 137.296 99.8287 137.128C100.117 136.96 100.465 136.876 100.873 136.876C101.169 136.876 101.445 137.008 101.701 137.272C101.957 137.536 102.121 137.844 102.193 138.196C102.217 138.508 102.229 138.888 102.229 139.336C102.229 139.624 102.245 140 102.277 140.464C102.293 140.64 102.337 140.804 102.409 140.956C102.489 141.108 102.601 141.184 102.745 141.184C102.817 141.184 102.873 141.18 102.913 141.172C102.961 141.164 103.005 141.16 103.045 141.16C103.157 141.16 103.233 141.188 103.273 141.244C103.321 141.3 103.345 141.38 103.345 141.484C103.345 141.676 103.249 141.82 103.057 141.916C102.865 142.012 102.689 142.06 102.529 142.06C101.953 142.06 101.557 141.82 101.341 141.34C101.221 141.068 101.145 140.716 101.113 140.284C101.081 139.844 101.065 139.332 101.065 138.748C101.065 138.172 100.869 137.884 100.477 137.884C100.261 137.884 100.041 138 99.8167 138.232C99.6007 138.456 99.4207 138.756 99.2767 139.132C99.1327 139.5 99.0607 139.884 99.0607 140.284L99.0727 141.532C99.0727 141.708 99.0047 141.84 98.8687 141.928C98.7327 142.008 98.6047 142.048 98.4847 142.048C98.3087 142.048 98.1487 141.996 98.0047 141.892C97.8607 141.78 97.7887 141.656 97.7887 141.52C97.8447 140.92 97.8727 139.916 97.8727 138.508C97.8727 138.252 97.8527 137.304 97.8127 135.664L97.7767 134.56C97.7767 134.384 97.8567 134.232 98.0167 134.104C98.1767 133.968 98.3567 133.9 98.5567 133.9C98.7327 133.9 98.8607 133.94 98.9407 134.02C99.0207 134.1 99.0607 134.224 99.0607 134.392ZM103.838 137.956C103.774 137.956 103.714 137.932 103.658 137.884C103.61 137.828 103.586 137.764 103.586 137.692C103.586 137.508 103.666 137.336 103.826 137.176C103.874 137.152 103.97 137.112 104.114 137.056C104.258 137 104.386 136.972 104.498 136.972C104.802 136.972 105.05 137.056 105.242 137.224C105.434 137.384 105.53 137.616 105.53 137.92C105.53 138.008 105.514 138.196 105.482 138.484C105.45 138.82 105.434 139.08 105.434 139.264C105.434 139.824 105.51 140.276 105.662 140.62C105.718 140.732 105.806 140.82 105.926 140.884C106.046 140.948 106.154 140.98 106.25 140.98C106.482 140.98 106.67 140.94 106.814 140.86C106.958 140.78 107.114 140.652 107.282 140.476C107.45 140.3 107.558 140.1 107.606 139.876C107.662 139.652 107.702 139.344 107.726 138.952C107.742 138.696 107.758 138.508 107.774 138.388C107.814 138.004 107.834 137.676 107.834 137.404C107.834 137.228 107.882 137.084 107.978 136.972C108.074 136.852 108.206 136.792 108.374 136.792C108.47 136.792 108.578 136.824 108.698 136.888C108.826 136.944 108.91 137.012 108.95 137.092C108.998 137.172 109.022 137.304 109.022 137.488C109.022 137.584 109.01 137.676 108.986 137.764C108.93 137.964 108.902 138.204 108.902 138.484L108.914 139.108C108.914 139.676 108.954 140.096 109.034 140.368C109.074 140.496 109.13 140.628 109.202 140.764C109.274 140.892 109.342 141 109.406 141.088C109.566 141.264 109.67 141.388 109.718 141.46C109.766 141.524 109.79 141.588 109.79 141.652C109.79 141.748 109.742 141.84 109.646 141.928C109.558 142.008 109.462 142.048 109.358 142.048C109.062 142.048 108.806 141.948 108.59 141.748C108.374 141.548 108.214 141.288 108.11 140.968C107.838 141.28 107.586 141.532 107.354 141.724C107.194 141.836 106.998 141.92 106.766 141.976C106.534 142.024 106.302 142.048 106.07 142.048C105.758 142.048 105.442 141.92 105.122 141.664C104.802 141.408 104.586 141.112 104.474 140.776C104.466 140.76 104.442 140.696 104.402 140.584C104.37 140.472 104.354 140.304 104.354 140.08C104.354 139.784 104.37 139.412 104.402 138.964C104.426 138.676 104.438 138.412 104.438 138.172C104.438 138.1 104.41 138.04 104.354 137.992C104.306 137.944 104.25 137.92 104.186 137.92C104.138 137.92 104.082 137.928 104.018 137.944C103.962 137.952 103.902 137.956 103.838 137.956ZM110.687 137.872C110.487 137.704 110.387 137.508 110.387 137.284C110.387 137.172 110.443 137.072 110.555 136.984C110.667 136.888 110.803 136.84 110.963 136.84C111.251 136.84 111.487 136.916 111.671 137.068C111.855 137.22 112.015 137.44 112.151 137.728C112.319 137.416 112.531 137.188 112.787 137.044C113.051 136.892 113.383 136.816 113.783 136.816C114.023 136.816 114.215 136.848 114.359 136.912C114.511 136.968 114.635 137.052 114.731 137.164C114.827 137.268 114.947 137.428 115.091 137.644C115.299 137.388 115.559 137.188 115.871 137.044C116.191 136.9 116.519 136.828 116.855 136.828C117.247 136.828 117.603 136.992 117.923 137.32C118.251 137.648 118.471 138.02 118.583 138.436C118.623 138.612 118.651 139.028 118.667 139.684L118.715 140.38C118.755 140.804 118.891 141.056 119.123 141.136C119.235 141.168 119.327 141.208 119.399 141.256C119.479 141.296 119.519 141.34 119.519 141.388C119.535 141.58 119.491 141.72 119.387 141.808C119.315 141.856 119.215 141.908 119.087 141.964C118.959 142.02 118.859 142.048 118.787 142.048C118.355 142.048 118.047 141.892 117.863 141.58C117.743 141.372 117.667 141.136 117.635 140.872C117.603 140.6 117.587 140.232 117.587 139.768C117.587 139.272 117.527 138.848 117.407 138.496C117.287 138.136 117.015 137.956 116.591 137.956C116.439 137.956 116.287 138.004 116.135 138.1C115.991 138.188 115.887 138.3 115.823 138.436C115.711 138.652 115.635 138.888 115.595 139.144C115.555 139.392 115.535 139.68 115.535 140.008C115.535 140.216 115.547 140.428 115.571 140.644C115.571 140.708 115.575 140.812 115.583 140.956C115.599 141.092 115.607 141.216 115.607 141.328C115.607 141.528 115.567 141.7 115.487 141.844C115.415 141.98 115.287 142.048 115.103 142.048C114.663 142.048 114.431 141.816 114.407 141.352C114.407 141.024 114.411 140.848 114.419 140.824V140.308C114.419 140.02 114.407 139.74 114.383 139.468C114.359 139.196 114.331 138.992 114.299 138.856C114.227 138.592 114.131 138.388 114.011 138.244C113.891 138.1 113.707 138.028 113.459 138.028C113.291 138.028 113.135 138.068 112.991 138.148C112.847 138.228 112.723 138.34 112.619 138.484C112.467 138.724 112.367 139.016 112.319 139.36C112.271 139.8 112.235 140.148 112.211 140.404C112.195 140.652 112.187 140.94 112.187 141.268C112.187 141.5 112.147 141.688 112.067 141.832C111.995 141.976 111.855 142.048 111.646 142.048C111.495 142.048 111.335 142.008 111.167 141.928C111.007 141.84 110.927 141.724 110.927 141.58C110.927 141.428 110.943 141.276 110.975 141.124C111.047 140.668 111.083 139.892 111.083 138.796C111.083 138.62 111.043 138.448 110.963 138.28C110.891 138.104 110.799 137.968 110.687 137.872ZM120.595 137.872C120.595 137.152 120.583 136.58 120.559 136.156C120.543 135.916 120.527 135.736 120.511 135.616C120.471 134.992 120.451 134.604 120.451 134.452C120.451 134.084 120.635 133.9 121.003 133.9C121.235 133.9 121.391 133.96 121.471 134.08C121.559 134.2 121.619 134.396 121.651 134.668C121.731 135.22 121.771 135.868 121.771 136.612C121.771 136.948 121.759 137.284 121.735 137.62C121.879 137.396 122.107 137.212 122.419 137.068C122.739 136.924 123.031 136.852 123.295 136.852C123.655 136.852 123.955 136.928 124.195 137.08C124.443 137.224 124.687 137.436 124.927 137.716C125.063 137.916 125.183 138.156 125.287 138.436C125.399 138.708 125.455 138.944 125.455 139.144C125.455 139.488 125.399 139.852 125.287 140.236C125.183 140.612 125.043 140.904 124.867 141.112C124.643 141.384 124.387 141.588 124.099 141.724C123.819 141.86 123.483 141.928 123.091 141.928C122.483 141.928 122.003 141.68 121.651 141.184C121.611 141.384 121.523 141.584 121.387 141.784C121.251 141.976 121.095 142.072 120.919 142.072C120.775 142.072 120.655 142.036 120.559 141.964C120.463 141.884 120.415 141.768 120.415 141.616C120.415 141.56 120.431 141.42 120.463 141.196C120.543 140.716 120.583 140.264 120.583 139.84L120.595 137.872ZM122.899 140.932C123.083 140.932 123.247 140.908 123.391 140.86C123.535 140.804 123.695 140.716 123.871 140.596C124.007 140.516 124.107 140.364 124.171 140.14C124.243 139.916 124.279 139.668 124.279 139.396C124.279 138.98 124.163 138.608 123.931 138.28C123.843 138.184 123.727 138.104 123.583 138.04C123.439 137.976 123.295 137.944 123.151 137.944C122.807 137.944 122.507 138.04 122.251 138.232C122.003 138.424 121.863 138.692 121.831 139.036C121.831 139.14 121.827 139.224 121.819 139.288L121.795 140.236C121.891 140.42 122.047 140.584 122.263 140.728C122.479 140.864 122.691 140.932 122.899 140.932Z" fill="black"/>
<line x1="213.019" y1="81.4996" x2="161.019" y2="83.4996" stroke="black"/>
<path d="M130.452 79.376C130.428 79.888 130.416 80.38 130.416 80.852C130.416 81.34 130.448 82.056 130.512 83C130.52 83.144 130.536 83.436 130.56 83.876C130.584 84.308 130.596 84.704 130.596 85.064C130.676 85.056 130.76 85.044 130.848 85.028C130.944 85.012 131.016 85.004 131.064 85.004C131.24 85.004 131.38 85.048 131.484 85.136C131.588 85.224 131.64 85.36 131.64 85.544C131.64 85.664 131.592 85.756 131.496 85.82C131.4 85.884 131.232 85.932 130.992 85.964C130.76 85.988 130.42 86 129.972 86C129.476 86 129.104 85.984 128.856 85.952C128.608 85.92 128.436 85.86 128.34 85.772C128.244 85.676 128.196 85.536 128.196 85.352C128.196 85.216 128.24 85.124 128.328 85.076C128.416 85.028 128.54 85.004 128.7 85.004L128.952 85.016L129.348 85.04L129.288 83.624C129.24 82.856 129.216 82.152 129.216 81.512C129.216 81.168 129.228 80.696 129.252 80.096L129.276 79.436C129.004 79.452 128.792 79.46 128.64 79.46C128.464 79.46 128.344 79.428 128.28 79.364C128.224 79.3 128.196 79.168 128.196 78.968C128.196 78.744 128.348 78.6 128.652 78.536C128.964 78.472 129.436 78.44 130.068 78.44C130.556 78.44 130.92 78.456 131.16 78.488C131.408 78.52 131.532 78.592 131.532 78.704C131.532 78.976 131.472 79.156 131.352 79.244C131.24 79.324 131.02 79.364 130.692 79.364L130.452 79.376ZM138.241 85.076C138.281 85.092 138.345 85.112 138.433 85.136C138.521 85.16 138.585 85.184 138.625 85.208C138.665 85.232 138.685 85.268 138.685 85.316C138.693 85.508 138.621 85.668 138.469 85.796C138.325 85.916 138.153 85.976 137.953 85.976C137.641 85.976 137.397 85.892 137.221 85.724C137.045 85.556 136.917 85.3 136.837 84.956C136.805 84.82 136.789 84.632 136.789 84.392C136.789 84.256 136.797 84.036 136.813 83.732C136.829 83.412 136.837 83.156 136.837 82.964C136.837 82.684 136.757 82.44 136.597 82.232C136.445 82.016 136.229 81.908 135.949 81.908C135.781 81.908 135.605 81.96 135.421 82.064C135.237 82.16 135.109 82.28 135.037 82.424C134.917 82.656 134.833 82.908 134.785 83.18C134.697 83.66 134.653 84.16 134.653 84.68C134.653 84.928 134.657 85.12 134.665 85.256C134.665 85.288 134.665 85.352 134.665 85.448C134.673 85.536 134.665 85.62 134.641 85.7C134.625 85.772 134.593 85.84 134.545 85.904C134.505 85.944 134.441 85.976 134.353 86C134.273 86.032 134.197 86.048 134.125 86.048C134.013 86.048 133.873 86 133.705 85.904C133.537 85.808 133.441 85.7 133.417 85.58L133.405 85.376C133.405 85.304 133.413 85.22 133.429 85.124C133.525 84.564 133.573 84.076 133.573 83.66C133.573 83.476 133.569 83.332 133.561 83.228L133.549 82.664C133.549 82.472 133.501 82.288 133.405 82.112C133.309 81.928 133.197 81.836 133.069 81.836C133.029 81.836 132.973 81.852 132.901 81.884C132.829 81.908 132.769 81.92 132.721 81.92C132.641 81.92 132.553 81.88 132.457 81.8C132.369 81.72 132.325 81.636 132.325 81.548C132.325 81.38 132.381 81.244 132.493 81.14C132.613 81.044 132.729 80.968 132.841 80.912C132.961 80.856 133.097 80.828 133.249 80.828C133.377 80.828 133.481 80.84 133.561 80.864C133.641 80.888 133.749 80.94 133.885 81.02C133.957 81.06 134.041 81.148 134.137 81.284C134.233 81.42 134.313 81.612 134.377 81.86C134.585 81.476 134.841 81.208 135.145 81.056C135.457 80.896 135.853 80.816 136.333 80.816C136.517 80.816 136.713 80.876 136.921 80.996C137.137 81.116 137.321 81.256 137.473 81.416C137.617 81.592 137.737 81.812 137.833 82.076C137.929 82.332 137.977 82.564 137.977 82.772C137.977 82.892 137.969 83.088 137.953 83.36C137.929 83.576 137.917 83.804 137.917 84.044C137.917 84.604 138.025 84.948 138.241 85.076ZM144.522 85.94C144.354 85.94 144.194 85.892 144.042 85.796C143.898 85.692 143.77 85.584 143.658 85.472C143.546 85.352 143.47 85.272 143.43 85.232C143.262 85.472 143.018 85.668 142.698 85.82C142.378 85.972 142.07 86.048 141.774 86.048C141.318 86.048 140.914 85.952 140.562 85.76C140.21 85.568 139.938 85.308 139.746 84.98C139.554 84.644 139.458 84.272 139.458 83.864C139.458 83.48 139.502 83.112 139.59 82.76C139.686 82.4 139.814 82.1 139.974 81.86C140.19 81.556 140.478 81.316 140.838 81.14C141.206 80.964 141.57 80.876 141.93 80.876C142.146 80.876 142.35 80.916 142.542 80.996C142.734 81.076 142.902 81.176 143.046 81.296C143.046 80.768 143.042 80.436 143.034 80.3V80.036C143.034 79.284 143.082 78.736 143.178 78.392C143.266 78.056 143.482 77.888 143.826 77.888C144.01 77.888 144.146 77.928 144.234 78.008C144.322 78.088 144.366 78.24 144.366 78.464C144.366 78.544 144.346 78.764 144.306 79.124C144.218 80.02 144.174 80.916 144.174 81.812C144.174 82.564 144.186 83.124 144.21 83.492C144.242 83.852 144.302 84.14 144.39 84.356C144.486 84.572 144.634 84.764 144.834 84.932C144.954 85.028 145.038 85.108 145.086 85.172C145.142 85.236 145.17 85.32 145.17 85.424C145.17 85.552 145.106 85.672 144.978 85.784C144.85 85.888 144.698 85.94 144.522 85.94ZM141.738 85.076C142.162 85.076 142.474 84.944 142.674 84.68C142.882 84.408 142.986 84.064 142.986 83.648L142.974 82.976C142.966 82.848 142.962 82.676 142.962 82.46C142.666 82.108 142.346 81.932 142.002 81.932C141.77 81.932 141.55 81.992 141.342 82.112C141.142 82.232 140.978 82.408 140.85 82.64C140.714 82.904 140.646 83.304 140.646 83.84C140.646 84.208 140.754 84.508 140.97 84.74C141.186 84.964 141.442 85.076 141.738 85.076ZM145.88 83.456C145.88 83.152 145.936 82.848 146.048 82.544C146.16 82.232 146.308 81.948 146.492 81.692C146.676 81.436 146.968 81.228 147.368 81.068C147.768 80.9 148.124 80.816 148.436 80.816C148.756 80.816 149.08 80.86 149.408 80.948C149.744 81.036 149.976 81.172 150.104 81.356C150.4 81.772 150.548 82.18 150.548 82.58C150.548 82.796 150.5 82.98 150.404 83.132C150.316 83.284 150.188 83.448 150.02 83.624C149.884 83.768 149.668 83.864 149.372 83.912C149.084 83.96 148.796 83.984 148.508 83.984C148.324 83.984 148.1 83.968 147.836 83.936C147.572 83.896 147.316 83.848 147.068 83.792C147.084 83.952 147.124 84.108 147.188 84.26C147.252 84.412 147.328 84.528 147.416 84.608C147.576 84.76 147.74 84.856 147.908 84.896C148.084 84.936 148.308 84.956 148.58 84.956C148.868 84.956 149.136 84.908 149.384 84.812C149.584 84.74 149.748 84.704 149.876 84.704C150.028 84.704 150.144 84.752 150.224 84.848C150.304 84.936 150.344 85.052 150.344 85.196C150.344 85.396 150.228 85.56 149.996 85.688C149.764 85.816 149.496 85.912 149.192 85.976C148.896 86.032 148.656 86.06 148.472 86.06C148.096 86.06 147.732 85.992 147.38 85.856C147.028 85.72 146.736 85.528 146.504 85.28C146.312 85.056 146.16 84.788 146.048 84.476C145.936 84.156 145.88 83.816 145.88 83.456ZM148.496 81.836C148.32 81.836 148.144 81.872 147.968 81.944C147.792 82.008 147.648 82.1 147.536 82.22C147.392 82.372 147.292 82.496 147.236 82.592C147.188 82.68 147.156 82.804 147.14 82.964C147.34 83.028 147.756 83.06 148.388 83.06C148.732 83.06 148.996 83.008 149.18 82.904C149.372 82.8 149.468 82.664 149.468 82.496C149.468 82.328 149.364 82.176 149.156 82.04C148.948 81.904 148.728 81.836 148.496 81.836ZM155.751 80.708C155.911 80.708 156.035 80.748 156.123 80.828C156.219 80.9 156.267 80.992 156.267 81.104C156.267 81.184 156.251 81.268 156.219 81.356C156.195 81.436 156.167 81.52 156.135 81.608C155.951 82.04 155.563 82.644 154.971 83.42C155.579 84.204 156.071 84.708 156.447 84.932C156.479 84.948 156.539 84.976 156.627 85.016C156.715 85.056 156.783 85.104 156.831 85.16C156.887 85.216 156.915 85.28 156.915 85.352C156.915 85.528 156.847 85.672 156.711 85.784C156.583 85.888 156.427 85.94 156.243 85.94C155.931 85.94 155.591 85.768 155.223 85.424C154.855 85.072 154.543 84.704 154.287 84.32C154.103 84.6 153.891 84.88 153.651 85.16C153.419 85.432 153.203 85.664 153.003 85.856C152.923 85.944 152.827 86.012 152.715 86.06C152.611 86.108 152.507 86.132 152.403 86.132C152.259 86.132 152.131 86.1 152.019 86.036C151.907 85.972 151.851 85.86 151.851 85.7C151.851 85.66 151.879 85.596 151.935 85.508C151.991 85.412 152.023 85.356 152.031 85.34C152.127 85.172 152.255 85 152.415 84.824C152.575 84.64 152.675 84.524 152.715 84.476C152.811 84.356 152.915 84.24 153.027 84.128C153.091 84.056 153.187 83.944 153.315 83.792C153.443 83.64 153.531 83.52 153.579 83.432L153.159 82.856C152.959 82.624 152.787 82.44 152.643 82.304C152.499 82.16 152.383 82.088 152.295 82.088C152.167 82.088 152.047 82.124 151.935 82.196C151.839 82.26 151.743 82.292 151.647 82.292C151.543 82.292 151.463 82.268 151.407 82.22C151.351 82.164 151.323 82.104 151.323 82.04C151.323 81.768 151.431 81.536 151.647 81.344C151.863 81.144 152.135 81.044 152.463 81.044C152.775 81.044 153.051 81.152 153.291 81.368C153.539 81.576 153.783 81.856 154.023 82.208C154.055 82.24 154.091 82.292 154.131 82.364C154.171 82.436 154.211 82.496 154.251 82.544C154.339 82.416 154.499 82.168 154.731 81.8C154.979 81.36 155.127 81.108 155.175 81.044C155.343 80.82 155.535 80.708 155.751 80.708Z" fill="black"/>
<line x1="251.573" y1="63.26" x2="237.573" y2="40.26" stroke="black"/>
<path d="M208.147 32.416C208.259 32.416 208.395 32.492 208.555 32.644C208.723 32.788 208.807 32.912 208.807 33.016C208.807 33.504 208.791 34.172 208.759 35.02C208.751 35.228 208.743 35.48 208.735 35.776C208.727 36.064 208.723 36.4 208.723 36.784C208.723 38 208.795 38.896 208.939 39.472C208.931 39.664 208.855 39.804 208.711 39.892C208.567 39.972 208.423 40.012 208.279 40.012C207.959 40.012 207.747 39.9 207.643 39.676C207.547 39.452 207.499 39.132 207.499 38.716C207.499 37.172 207.515 35.752 207.547 34.456C206.627 35.48 205.911 36.34 205.399 37.036C205.399 37.036 205.327 37.084 205.183 37.18C205.047 37.3 204.935 37.36 204.847 37.36C204.639 37.36 204.467 37.308 204.331 37.204C204.195 37.1 204.063 36.948 203.935 36.748L203.359 35.932C202.959 35.372 202.667 34.948 202.483 34.66C202.483 35.396 202.519 36.396 202.591 37.66C202.647 38.388 202.675 38.936 202.675 39.304C202.675 39.496 202.627 39.66 202.531 39.796C202.435 39.924 202.283 39.988 202.075 39.988C201.867 39.988 201.695 39.948 201.559 39.868C201.431 39.788 201.363 39.668 201.355 39.508C201.363 39.372 201.367 39.148 201.367 38.836C201.367 38.212 201.347 37.452 201.307 36.556L201.283 35.908L201.259 35.068C201.251 34.82 201.243 34.532 201.235 34.204C201.227 33.868 201.223 33.504 201.223 33.112C201.223 32.632 201.483 32.392 202.003 32.392C202.163 32.392 202.323 32.432 202.483 32.512C202.651 32.592 202.775 32.708 202.855 32.86C202.919 33.14 203.155 33.604 203.563 34.252C203.971 34.9 204.371 35.508 204.763 36.076C205.115 35.628 205.403 35.292 205.627 35.068C206.011 34.676 206.327 34.312 206.575 33.976C206.831 33.64 207.107 33.236 207.403 32.764C207.475 32.668 207.579 32.588 207.715 32.524C207.851 32.452 207.995 32.416 208.147 32.416ZM211.041 32.296C211.321 32.32 211.565 32.396 211.773 32.524C211.981 32.644 212.085 32.828 212.085 33.076C212.085 33.26 211.997 33.408 211.821 33.52C211.653 33.624 211.449 33.676 211.209 33.676C210.977 33.676 210.817 33.616 210.729 33.496C210.641 33.376 210.597 33.252 210.597 33.124C210.597 32.884 210.621 32.684 210.669 32.524C210.725 32.364 210.849 32.288 211.041 32.296ZM212.001 37.612V37.96C212.001 38.272 212.009 38.568 212.025 38.848C212.049 39.12 212.077 39.396 212.109 39.676C212.101 39.756 212.041 39.84 211.929 39.928C211.817 40.008 211.717 40.048 211.629 40.048C211.477 40.048 211.321 40.02 211.161 39.964C211.009 39.9 210.917 39.824 210.885 39.736C210.837 39.48 210.813 39.252 210.813 39.052C210.813 38.396 210.793 37.66 210.753 36.844C210.721 36.124 210.705 35.62 210.705 35.332C210.705 35.188 210.777 35.064 210.921 34.96C211.065 34.856 211.217 34.804 211.377 34.804C211.609 34.804 211.769 34.856 211.857 34.96C211.953 35.064 212.001 35.228 212.001 35.452V37.612ZM218.287 32.488C218.287 32.568 218.267 32.788 218.227 33.148C218.139 34.028 218.095 34.92 218.095 35.824C218.095 36.616 218.107 37.22 218.131 37.636C218.155 38.052 218.215 38.372 218.311 38.596C218.407 38.812 218.555 38.92 218.755 38.92C219.139 38.92 219.331 39.048 219.331 39.304C219.331 39.472 219.247 39.616 219.079 39.736C218.911 39.848 218.727 39.904 218.527 39.904C218.287 39.904 218.063 39.848 217.855 39.736C217.647 39.624 217.483 39.452 217.363 39.22C217.195 39.468 216.951 39.668 216.631 39.82C216.319 39.964 216.015 40.036 215.719 40.036C215.263 40.036 214.859 39.94 214.507 39.748C214.155 39.556 213.883 39.296 213.691 38.968C213.499 38.632 213.403 38.264 213.403 37.864C213.403 37.48 213.447 37.112 213.535 36.76C213.631 36.4 213.759 36.104 213.919 35.872C214.135 35.568 214.423 35.328 214.783 35.152C215.151 34.968 215.511 34.876 215.863 34.876C216.079 34.876 216.283 34.92 216.475 35.008C216.667 35.088 216.835 35.188 216.979 35.308C216.979 34.772 216.975 34.436 216.967 34.3V34.048C216.967 33.304 217.015 32.76 217.111 32.416C217.199 32.08 217.411 31.912 217.747 31.912C217.931 31.912 218.067 31.952 218.155 32.032C218.243 32.112 218.287 32.264 218.287 32.488ZM214.591 37.84C214.591 38.208 214.695 38.504 214.903 38.728C215.119 38.952 215.375 39.064 215.671 39.064C216.095 39.064 216.407 38.932 216.607 38.668C216.815 38.404 216.919 38.064 216.919 37.648L216.907 36.46C216.595 36.116 216.271 35.944 215.935 35.944C215.703 35.944 215.483 36.004 215.275 36.124C215.075 36.236 214.915 36.408 214.795 36.64C214.659 36.904 214.591 37.304 214.591 37.84ZM225.088 39.94C224.92 39.94 224.76 39.892 224.608 39.796C224.464 39.692 224.336 39.584 224.224 39.472C224.112 39.352 224.036 39.272 223.996 39.232C223.828 39.472 223.584 39.668 223.264 39.82C222.944 39.972 222.636 40.048 222.34 40.048C221.884 40.048 221.48 39.952 221.128 39.76C220.776 39.568 220.504 39.308 220.312 38.98C220.12 38.644 220.024 38.272 220.024 37.864C220.024 37.48 220.068 37.112 220.156 36.76C220.252 36.4 220.38 36.1 220.54 35.86C220.756 35.556 221.044 35.316 221.404 35.14C221.772 34.964 222.136 34.876 222.496 34.876C222.712 34.876 222.916 34.916 223.108 34.996C223.3 35.076 223.468 35.176 223.612 35.296C223.612 34.768 223.608 34.436 223.6 34.3V34.036C223.6 33.284 223.648 32.736 223.744 32.392C223.832 32.056 224.048 31.888 224.392 31.888C224.576 31.888 224.712 31.928 224.8 32.008C224.888 32.088 224.932 32.24 224.932 32.464C224.932 32.544 224.912 32.764 224.872 33.124C224.784 34.02 224.74 34.916 224.74 35.812C224.74 36.564 224.752 37.124 224.776 37.492C224.808 37.852 224.868 38.14 224.956 38.356C225.052 38.572 225.2 38.764 225.4 38.932C225.52 39.028 225.604 39.108 225.652 39.172C225.708 39.236 225.736 39.32 225.736 39.424C225.736 39.552 225.672 39.672 225.544 39.784C225.416 39.888 225.264 39.94 225.088 39.94ZM222.304 39.076C222.728 39.076 223.04 38.944 223.24 38.68C223.448 38.408 223.552 38.064 223.552 37.648L223.54 36.976C223.532 36.848 223.528 36.676 223.528 36.46C223.232 36.108 222.912 35.932 222.568 35.932C222.336 35.932 222.116 35.992 221.908 36.112C221.708 36.232 221.544 36.408 221.416 36.64C221.28 36.904 221.212 37.304 221.212 37.84C221.212 38.208 221.32 38.508 221.536 38.74C221.752 38.964 222.008 39.076 222.304 39.076ZM227.886 38.14C227.886 38.444 227.93 38.68 228.018 38.848C228.114 39.008 228.234 39.088 228.378 39.088C228.458 39.088 228.534 39.084 228.606 39.076C228.678 39.06 228.75 39.052 228.822 39.052C228.902 39.052 228.97 39.092 229.026 39.172C229.09 39.252 229.122 39.34 229.122 39.436C229.122 39.628 229.03 39.78 228.846 39.892C228.67 39.996 228.43 40.048 228.126 40.048C227.91 40.048 227.69 39.984 227.466 39.856C227.25 39.72 227.07 39.512 226.926 39.232C226.782 38.944 226.71 38.588 226.71 38.164C226.71 37.252 226.726 36.48 226.758 35.848C226.798 35.096 226.818 34.148 226.818 33.004C226.818 32.644 226.838 32.392 226.878 32.248C226.926 32.136 227.002 32.052 227.106 31.996C227.218 31.932 227.334 31.9 227.454 31.9C227.574 31.9 227.678 31.92 227.766 31.96C227.862 32 227.926 32.064 227.958 32.152C227.99 32.248 228.01 32.344 228.018 32.44C228.034 32.528 228.042 32.656 228.042 32.824C228.042 33.152 228.03 33.468 228.006 33.772C227.99 34.14 227.982 34.408 227.982 34.576C227.918 35.984 227.886 37.172 227.886 38.14ZM229.821 37.252C229.821 36.764 229.929 36.36 230.145 36.04C230.361 35.712 230.661 35.404 231.045 35.116C231.157 35.036 231.345 34.968 231.609 34.912C231.873 34.848 232.105 34.816 232.305 34.816C232.545 34.816 232.797 34.868 233.061 34.972C233.333 35.068 233.553 35.18 233.721 35.308C234.017 35.524 234.221 35.776 234.333 36.064C234.445 36.344 234.501 36.68 234.501 37.072C234.501 37.24 234.405 37.404 234.213 37.564C234.029 37.716 233.829 37.792 233.613 37.792L233.157 37.78C232.925 37.78 232.593 37.788 232.161 37.804L231.909 37.816C231.733 37.832 231.601 37.84 231.513 37.84C231.385 37.84 231.209 37.824 230.985 37.792C231.017 38.168 231.157 38.464 231.405 38.68C231.653 38.888 231.921 38.992 232.209 38.992C232.713 38.992 233.065 38.892 233.265 38.692C233.433 38.572 233.545 38.496 233.601 38.464C233.657 38.432 233.745 38.416 233.865 38.416C233.993 38.416 234.105 38.476 234.201 38.596C234.297 38.716 234.345 38.836 234.345 38.956C234.345 39.092 234.261 39.232 234.093 39.376C233.933 39.512 233.713 39.656 233.433 39.808C233.281 39.872 233.073 39.928 232.809 39.976C232.545 40.024 232.325 40.048 232.149 40.048C231.869 40.048 231.557 39.968 231.213 39.808C230.869 39.64 230.613 39.456 230.445 39.256C230.277 39.056 230.129 38.772 230.001 38.404C229.881 38.036 229.821 37.652 229.821 37.252ZM232.209 36.928C232.777 36.928 233.193 36.908 233.457 36.868C233.441 36.636 233.369 36.448 233.241 36.304C233.113 36.152 232.937 36.024 232.713 35.92C232.641 35.888 232.577 35.864 232.521 35.848C232.465 35.832 232.401 35.824 232.329 35.824C231.961 35.824 231.649 35.924 231.393 36.124C231.145 36.324 230.997 36.58 230.949 36.892C231.349 36.916 231.769 36.928 232.209 36.928Z" fill="black"/>
<line x1="297.7" y1="87.6" x2="321.7" y2="69.6" stroke="black"/>
<path d="M328.752 67.82C329.032 68.292 329.312 68.712 329.592 69.08C329.88 69.44 330.256 69.884 330.72 70.412C330.776 70.468 330.804 70.532 330.804 70.604C330.804 70.716 330.74 70.812 330.612 70.892C330.492 70.972 330.344 71.012 330.168 71.012C329.92 71.012 329.652 70.908 329.364 70.7C329.108 70.516 328.88 70.272 328.68 69.968C328.48 69.664 328.248 69.268 327.984 68.78C327.776 68.404 327.652 68.184 327.612 68.12C327.3 68.248 326.812 68.328 326.148 68.36C326.148 68.632 326.172 69 326.22 69.464C326.268 69.944 326.292 70.292 326.292 70.508C326.292 70.652 326.22 70.772 326.076 70.868C325.94 70.964 325.784 71.012 325.608 71.012C325.4 71.012 325.24 70.928 325.128 70.76C325.016 70.536 324.944 70.268 324.912 69.956C324.88 69.644 324.864 69.272 324.864 68.84C324.864 68.384 324.892 67.868 324.948 67.292C324.996 66.652 325.02 66.18 325.02 65.876C325.02 65.628 324.996 65.296 324.948 64.88C324.94 64.808 324.928 64.684 324.912 64.508C324.896 64.332 324.888 64.172 324.888 64.028C324.888 63.916 324.928 63.82 325.008 63.74C325.096 63.652 325.188 63.592 325.284 63.56C325.932 63.456 326.564 63.404 327.18 63.404C328.228 63.404 329.096 63.6 329.784 63.992C330.472 64.384 330.816 64.98 330.816 65.78C330.816 66.028 330.76 66.268 330.648 66.5C330.544 66.724 330.4 66.912 330.216 67.064C329.728 67.44 329.24 67.692 328.752 67.82ZM329.556 65.744C329.556 65.36 329.352 65.048 328.944 64.808C328.536 64.56 327.956 64.436 327.204 64.436C326.868 64.436 326.536 64.476 326.208 64.556L326.22 65.168C326.22 65.52 326.208 65.864 326.184 66.2C326.16 66.536 326.148 66.896 326.148 67.28C326.284 67.248 326.428 67.228 326.58 67.22C326.732 67.204 326.832 67.192 326.88 67.184C327.232 67.152 327.504 67.112 327.696 67.064C328.056 66.952 328.352 66.852 328.584 66.764C328.824 66.668 329.044 66.536 329.244 66.368C329.452 66.192 329.556 65.984 329.556 65.744ZM332.49 63.296C332.77 63.32 333.014 63.396 333.222 63.524C333.43 63.644 333.534 63.828 333.534 64.076C333.534 64.26 333.446 64.408 333.27 64.52C333.102 64.624 332.898 64.676 332.658 64.676C332.426 64.676 332.266 64.616 332.178 64.496C332.09 64.376 332.046 64.252 332.046 64.124C332.046 63.884 332.07 63.684 332.118 63.524C332.174 63.364 332.298 63.288 332.49 63.296ZM333.45 68.612V68.96C333.45 69.272 333.458 69.568 333.474 69.848C333.498 70.12 333.526 70.396 333.558 70.676C333.55 70.756 333.49 70.84 333.378 70.928C333.266 71.008 333.166 71.048 333.078 71.048C332.926 71.048 332.77 71.02 332.61 70.964C332.458 70.9 332.366 70.824 332.334 70.736C332.286 70.48 332.262 70.252 332.262 70.052C332.262 69.396 332.242 68.66 332.202 67.844C332.17 67.124 332.154 66.62 332.154 66.332C332.154 66.188 332.226 66.064 332.37 65.96C332.514 65.856 332.666 65.804 332.826 65.804C333.058 65.804 333.218 65.856 333.306 65.96C333.402 66.064 333.45 66.228 333.45 66.452V68.612ZM340.421 70.076C340.461 70.092 340.525 70.112 340.613 70.136C340.701 70.16 340.765 70.184 340.805 70.208C340.845 70.232 340.865 70.268 340.865 70.316C340.873 70.508 340.801 70.668 340.648 70.796C340.505 70.916 340.333 70.976 340.133 70.976C339.821 70.976 339.577 70.892 339.401 70.724C339.225 70.556 339.097 70.3 339.017 69.956C338.985 69.82 338.969 69.632 338.969 69.392C338.969 69.256 338.977 69.036 338.993 68.732C339.009 68.412 339.017 68.156 339.017 67.964C339.017 67.684 338.937 67.44 338.777 67.232C338.625 67.016 338.409 66.908 338.129 66.908C337.961 66.908 337.785 66.96 337.601 67.064C337.417 67.16 337.289 67.28 337.217 67.424C337.097 67.656 337.013 67.908 336.965 68.18C336.877 68.66 336.833 69.16 336.833 69.68C336.833 69.928 336.837 70.12 336.845 70.256C336.845 70.288 336.845 70.352 336.845 70.448C336.853 70.536 336.845 70.62 336.821 70.7C336.805 70.772 336.773 70.84 336.725 70.904C336.685 70.944 336.621 70.976 336.533 71C336.453 71.032 336.377 71.048 336.305 71.048C336.193 71.048 336.053 71 335.885 70.904C335.717 70.808 335.621 70.7 335.597 70.58L335.585 70.376C335.585 70.304 335.593 70.22 335.609 70.124C335.705 69.564 335.753 69.076 335.753 68.66C335.753 68.476 335.749 68.332 335.741 68.228L335.729 67.664C335.729 67.472 335.681 67.288 335.585 67.112C335.489 66.928 335.377 66.836 335.249 66.836C335.209 66.836 335.153 66.852 335.081 66.884C335.009 66.908 334.949 66.92 334.901 66.92C334.821 66.92 334.733 66.88 334.637 66.8C334.549 66.72 334.505 66.636 334.505 66.548C334.505 66.38 334.561 66.244 334.673 66.14C334.793 66.044 334.909 65.968 335.021 65.912C335.141 65.856 335.277 65.828 335.429 65.828C335.557 65.828 335.661 65.84 335.741 65.864C335.821 65.888 335.929 65.94 336.065 66.02C336.137 66.06 336.221 66.148 336.317 66.284C336.413 66.42 336.493 66.612 336.557 66.86C336.765 66.476 337.021 66.208 337.325 66.056C337.637 65.896 338.033 65.816 338.513 65.816C338.697 65.816 338.893 65.876 339.101 65.996C339.317 66.116 339.501 66.256 339.653 66.416C339.797 66.592 339.917 66.812 340.013 67.076C340.109 67.332 340.157 67.564 340.157 67.772C340.157 67.892 340.149 68.088 340.133 68.36C340.109 68.576 340.097 68.804 340.097 69.044C340.097 69.604 340.205 69.948 340.421 70.076ZM346.342 67.988C346.342 68.356 346.25 68.668 346.066 68.924C345.882 69.172 345.638 69.392 345.334 69.584C344.918 69.808 344.434 69.924 343.882 69.932C343.85 70.028 343.834 70.128 343.834 70.232C343.834 70.328 343.886 70.4 343.99 70.448C344.102 70.488 344.298 70.52 344.578 70.544C344.81 70.56 345.07 70.612 345.358 70.7C345.654 70.78 345.886 70.872 346.054 70.976C346.262 71.128 346.406 71.292 346.486 71.468C346.574 71.644 346.618 71.864 346.618 72.128C346.618 72.472 346.458 72.76 346.138 72.992C345.826 73.232 345.458 73.408 345.034 73.52C344.61 73.632 344.238 73.688 343.918 73.688C343.534 73.688 343.206 73.64 342.934 73.544C342.67 73.456 342.418 73.332 342.178 73.172C342.01 73.052 341.878 72.9 341.782 72.716C341.686 72.532 341.638 72.34 341.638 72.14C341.638 71.94 341.702 71.748 341.83 71.564C341.966 71.38 342.13 71.22 342.322 71.084C342.514 70.956 342.694 70.868 342.862 70.82C342.798 70.74 342.75 70.672 342.718 70.616C342.694 70.552 342.682 70.48 342.682 70.4C342.682 70.128 342.75 69.9 342.886 69.716C342.502 69.588 342.198 69.36 341.974 69.032C341.758 68.704 341.65 68.32 341.65 67.88C341.65 67.592 341.718 67.332 341.854 67.1C341.99 66.86 342.178 66.632 342.418 66.416C342.826 66.048 343.39 65.864 344.11 65.864C344.206 65.864 344.338 65.88 344.506 65.912C344.674 65.944 344.838 65.988 344.998 66.044C345.254 65.932 345.554 65.816 345.898 65.696C346.242 65.576 346.474 65.516 346.594 65.516C346.778 65.516 346.914 65.548 347.002 65.612C347.098 65.668 347.146 65.796 347.146 65.996C347.146 66.18 347.038 66.312 346.822 66.392C346.614 66.472 346.298 66.548 345.874 66.62C346.186 66.996 346.342 67.452 346.342 67.988ZM343.846 68.948C344.31 68.948 344.646 68.852 344.854 68.66C345.07 68.468 345.178 68.18 345.178 67.796C345.178 67.164 344.806 66.848 344.062 66.848C343.774 66.848 343.546 66.88 343.378 66.944C343.218 67.008 343.086 67.116 342.982 67.268C342.838 67.46 342.766 67.72 342.766 68.048C342.766 68.304 342.87 68.52 343.078 68.696C343.294 68.864 343.55 68.948 343.846 68.948ZM342.766 72.224C342.766 72.36 342.89 72.476 343.138 72.572C343.394 72.676 343.666 72.728 343.954 72.728C344.274 72.728 344.602 72.668 344.938 72.548C345.282 72.436 345.454 72.284 345.454 72.092C345.454 71.812 345.206 71.632 344.71 71.552C344.534 71.52 344.278 71.46 343.942 71.372C343.902 71.364 343.854 71.352 343.798 71.336C343.75 71.32 343.698 71.304 343.642 71.288C343.466 71.352 343.274 71.484 343.066 71.684C342.866 71.892 342.766 72.072 342.766 72.224Z" fill="black"/>
<line x1="337.571" y1="142.743" x2="349.571" y2="122.743" stroke="black"/>
<path d="M355.828 117.288C355.516 117.288 355.252 117.28 355.036 117.264C354.828 117.24 354.552 117.204 354.208 117.156L354.196 118.416C354.188 118.632 354.184 118.94 354.184 119.34C354.184 119.548 354.124 119.712 354.004 119.832C353.892 119.944 353.764 120 353.62 120C353.356 120 353.16 119.968 353.032 119.904C352.904 119.832 352.84 119.708 352.84 119.532C352.84 119.3 352.86 118.972 352.9 118.548C352.988 117.636 353.032 116.7 353.032 115.74C353.032 114.844 353.004 114 352.948 113.208C352.956 113.096 353.012 112.968 353.116 112.824C353.228 112.68 353.368 112.6 353.536 112.584C353.72 112.584 354.012 112.552 354.412 112.488C354.828 112.424 355.144 112.392 355.36 112.392C356.016 112.392 356.524 112.456 356.884 112.584C357.252 112.712 357.62 112.924 357.988 113.22C358.388 113.844 358.588 114.284 358.588 114.54C358.588 115.076 358.48 115.552 358.264 115.968C358.048 116.384 357.732 116.708 357.316 116.94C356.9 117.172 356.404 117.288 355.828 117.288ZM355.552 113.412C355.296 113.412 355.072 113.428 354.88 113.46C354.696 113.484 354.472 113.528 354.208 113.592C354.24 114.328 354.256 114.864 354.256 115.2C354.256 115.544 354.244 115.832 354.22 116.064C354.564 116.136 354.836 116.184 355.036 116.208C355.236 116.224 355.46 116.232 355.708 116.232C356.3 116.232 356.716 116.08 356.956 115.776C357.204 115.464 357.328 115.104 357.328 114.696C357.328 114.576 357.292 114.428 357.22 114.252C357.148 114.076 357.084 113.96 357.028 113.904C356.812 113.712 356.6 113.584 356.392 113.52C356.192 113.448 355.912 113.412 355.552 113.412ZM360.103 112.296C360.383 112.32 360.627 112.396 360.835 112.524C361.043 112.644 361.147 112.828 361.147 113.076C361.147 113.26 361.059 113.408 360.883 113.52C360.715 113.624 360.511 113.676 360.271 113.676C360.039 113.676 359.879 113.616 359.791 113.496C359.703 113.376 359.659 113.252 359.659 113.124C359.659 112.884 359.683 112.684 359.731 112.524C359.787 112.364 359.911 112.288 360.103 112.296ZM361.063 117.612V117.96C361.063 118.272 361.071 118.568 361.087 118.848C361.111 119.12 361.139 119.396 361.171 119.676C361.163 119.756 361.103 119.84 360.991 119.928C360.879 120.008 360.779 120.048 360.691 120.048C360.539 120.048 360.383 120.02 360.223 119.964C360.071 119.9 359.979 119.824 359.947 119.736C359.899 119.48 359.875 119.252 359.875 119.052C359.875 118.396 359.855 117.66 359.815 116.844C359.783 116.124 359.767 115.62 359.767 115.332C359.767 115.188 359.839 115.064 359.983 114.96C360.127 114.856 360.279 114.804 360.439 114.804C360.671 114.804 360.831 114.856 360.919 114.96C361.015 115.064 361.063 115.228 361.063 115.452V117.612ZM368.034 119.076C368.074 119.092 368.138 119.112 368.226 119.136C368.314 119.16 368.378 119.184 368.418 119.208C368.458 119.232 368.478 119.268 368.478 119.316C368.486 119.508 368.414 119.668 368.262 119.796C368.118 119.916 367.946 119.976 367.746 119.976C367.434 119.976 367.19 119.892 367.014 119.724C366.838 119.556 366.71 119.3 366.63 118.956C366.598 118.82 366.582 118.632 366.582 118.392C366.582 118.256 366.59 118.036 366.606 117.732C366.622 117.412 366.63 117.156 366.63 116.964C366.63 116.684 366.55 116.44 366.39 116.232C366.238 116.016 366.022 115.908 365.742 115.908C365.574 115.908 365.398 115.96 365.214 116.064C365.03 116.16 364.902 116.28 364.83 116.424C364.71 116.656 364.626 116.908 364.578 117.18C364.49 117.66 364.446 118.16 364.446 118.68C364.446 118.928 364.45 119.12 364.458 119.256C364.458 119.288 364.458 119.352 364.458 119.448C364.466 119.536 364.458 119.62 364.434 119.7C364.418 119.772 364.386 119.84 364.338 119.904C364.298 119.944 364.234 119.976 364.146 120C364.066 120.032 363.99 120.048 363.918 120.048C363.806 120.048 363.666 120 363.498 119.904C363.33 119.808 363.234 119.7 363.21 119.58L363.198 119.376C363.198 119.304 363.206 119.22 363.222 119.124C363.318 118.564 363.366 118.076 363.366 117.66C363.366 117.476 363.362 117.332 363.354 117.228L363.342 116.664C363.342 116.472 363.294 116.288 363.198 116.112C363.102 115.928 362.99 115.836 362.862 115.836C362.822 115.836 362.766 115.852 362.694 115.884C362.622 115.908 362.562 115.92 362.514 115.92C362.434 115.92 362.346 115.88 362.25 115.8C362.162 115.72 362.118 115.636 362.118 115.548C362.118 115.38 362.174 115.244 362.286 115.14C362.406 115.044 362.522 114.968 362.634 114.912C362.754 114.856 362.89 114.828 363.042 114.828C363.17 114.828 363.274 114.84 363.354 114.864C363.434 114.888 363.542 114.94 363.678 115.02C363.75 115.06 363.834 115.148 363.93 115.284C364.026 115.42 364.106 115.612 364.17 115.86C364.378 115.476 364.634 115.208 364.938 115.056C365.25 114.896 365.646 114.816 366.126 114.816C366.31 114.816 366.506 114.876 366.714 114.996C366.93 115.116 367.114 115.256 367.266 115.416C367.41 115.592 367.53 115.812 367.626 116.076C367.722 116.332 367.77 116.564 367.77 116.772C367.77 116.892 367.762 117.088 367.746 117.36C367.722 117.576 367.71 117.804 367.71 118.044C367.71 118.604 367.818 118.948 368.034 119.076ZM374.159 118.908C374.295 119.012 374.387 119.112 374.435 119.208C374.483 119.304 374.507 119.424 374.507 119.568C374.507 119.688 374.443 119.8 374.315 119.904C374.195 120 374.083 120.048 373.979 120.048C373.891 120.048 373.787 120.02 373.667 119.964C373.547 119.908 373.455 119.844 373.391 119.772C373.303 119.7 373.131 119.524 372.875 119.244C372.627 118.964 372.443 118.744 372.323 118.584C372.035 118.224 371.891 118.044 371.891 118.044L371.471 117.528L370.703 118.152L370.751 119.46C370.751 119.676 370.695 119.828 370.583 119.916C370.479 120.004 370.375 120.048 370.271 120.048C370.119 120.048 369.983 120.02 369.863 119.964C369.751 119.908 369.683 119.844 369.659 119.772C369.571 119.452 369.527 119.032 369.527 118.512C369.527 117.536 369.543 116.756 369.575 116.172C369.607 115.444 369.623 114.756 369.623 114.108C369.623 113.908 369.599 113.632 369.551 113.28C369.543 113.208 369.531 113.092 369.515 112.932C369.499 112.772 369.491 112.628 369.491 112.5C369.491 112.316 369.551 112.172 369.671 112.068C369.799 111.964 369.963 111.912 370.163 111.912C370.323 111.912 370.451 111.964 370.547 112.068C370.651 112.164 370.703 112.3 370.703 112.476C370.703 112.74 370.711 113.088 370.727 113.52C370.743 113.952 370.751 114.268 370.751 114.468C370.751 114.716 370.743 115.048 370.727 115.464C370.711 115.688 370.703 115.856 370.703 115.968C370.703 116.32 370.707 116.612 370.715 116.844C371.003 116.548 371.387 116.204 371.867 115.812C372.355 115.412 372.735 115.132 373.007 114.972C373.311 114.788 373.495 114.696 373.559 114.696C373.727 114.696 373.871 114.732 373.991 114.804C374.111 114.876 374.171 114.984 374.171 115.128C374.171 115.272 374.151 115.384 374.111 115.464C374.071 115.536 373.999 115.612 373.895 115.692L372.347 116.82C372.691 117.244 373.047 117.676 373.415 118.116C373.783 118.548 374.031 118.812 374.159 118.908ZM376.82 122.448C376.524 122.448 376.272 122.396 376.064 122.292C375.856 122.196 375.7 122.076 375.596 121.932C375.5 121.796 375.452 121.676 375.452 121.572C375.452 121.428 375.504 121.3 375.608 121.188C375.712 121.084 375.828 121.032 375.956 121.032C376.028 121.032 376.096 121.056 376.16 121.104C376.232 121.152 376.276 121.18 376.292 121.188C376.332 121.22 376.384 121.268 376.448 121.332C376.512 121.404 376.576 121.44 376.64 121.44C376.824 121.44 376.972 121.324 377.084 121.092C377.196 120.86 377.304 120.484 377.408 119.964C376.88 119.092 376.38 118.204 375.908 117.3C375.436 116.396 375.2 115.784 375.2 115.464C375.2 115.264 375.272 115.116 375.416 115.02C375.56 114.924 375.724 114.876 375.908 114.876C376.044 114.876 376.152 114.904 376.232 114.96C376.312 115.008 376.376 115.1 376.424 115.236C376.648 115.916 376.876 116.524 377.108 117.06C377.34 117.588 377.608 118.12 377.912 118.656C378.056 118.336 378.228 117.812 378.428 117.084C378.548 116.66 378.652 116.316 378.74 116.052C378.828 115.78 378.928 115.532 379.04 115.308C379.112 115.164 379.2 115.048 379.304 114.96C379.416 114.872 379.536 114.828 379.664 114.828C379.808 114.828 379.956 114.88 380.108 114.984C380.268 115.08 380.348 115.196 380.348 115.332C380.348 115.372 380.32 115.468 380.264 115.62C379.952 116.316 379.676 116.988 379.436 117.636C379.196 118.276 378.972 118.98 378.764 119.748C378.636 120.156 378.5 120.552 378.356 120.936C378.212 121.328 378.112 121.572 378.056 121.668C377.888 121.892 377.708 122.076 377.516 122.22C377.324 122.372 377.092 122.448 376.82 122.448Z" fill="black"/>
</svg>
