<svg xmlns="http://www.w3.org/2000/svg" xmlns:xlink="http://www.w3.org/1999/xlink" width="500" zoomAndPan="magnify" viewBox="0 0 375 374.999991" height="500" preserveAspectRatio="xMidYMid meet" version="1.0"><defs><clipPath id="4beb791702"><path d="M 218 117 L 225 117 L 225 172 L 218 172 Z M 218 117 " clip-rule="nonzero"/></clipPath><clipPath id="4e9cf226bc"><path d="M 219.695312 361.785156 L 50.886719 293.089844 L 154.914062 37.445312 L 323.722656 106.136719 Z M 219.695312 361.785156 " clip-rule="nonzero"/></clipPath><clipPath id="5f414268c5"><path d="M 219.695312 361.785156 L 50.886719 293.089844 L 154.914062 37.445312 L 323.722656 106.136719 Z M 219.695312 361.785156 " clip-rule="nonzero"/></clipPath><clipPath id="7d72c12d3f"><path d="M 219.695312 361.785156 L 50.886719 293.089844 L 154.914062 37.445312 L 323.722656 106.136719 Z M 219.695312 361.785156 " clip-rule="nonzero"/></clipPath><clipPath id="c9a54cbfde"><path d="M 220 118 L 241 118 L 241 340 L 220 340 Z M 220 118 " clip-rule="nonzero"/></clipPath><clipPath id="4bccca21ad"><path d="M 219.695312 361.785156 L 50.886719 293.089844 L 154.914062 37.445312 L 323.722656 106.136719 Z M 219.695312 361.785156 " clip-rule="nonzero"/></clipPath><clipPath id="9997807929"><path d="M 219.695312 361.785156 L 50.886719 293.089844 L 154.914062 37.445312 L 323.722656 106.136719 Z M 219.695312 361.785156 " clip-rule="nonzero"/></clipPath><clipPath id="5dd41dbb7e"><path d="M 219.695312 361.785156 L 50.886719 293.089844 L 154.914062 37.445312 L 323.722656 106.136719 Z M 219.695312 361.785156 " clip-rule="nonzero"/></clipPath><clipPath id="4a5feae18b"><path d="M 191 74 L 197 74 L 197 174 L 191 174 Z M 191 74 " clip-rule="nonzero"/></clipPath><clipPath id="77dcb90eda"><path d="M 219.695312 361.785156 L 50.886719 293.089844 L 154.914062 37.445312 L 323.722656 106.136719 Z M 219.695312 361.785156 " clip-rule="nonzero"/></clipPath><clipPath id="b0130711c9"><path d="M 219.695312 361.785156 L 50.886719 293.089844 L 154.914062 37.445312 L 323.722656 106.136719 Z M 219.695312 361.785156 " clip-rule="nonzero"/></clipPath><clipPath id="d6a5aaa17e"><path d="M 219.695312 361.785156 L 50.886719 293.089844 L 154.914062 37.445312 L 323.722656 106.136719 Z M 219.695312 361.785156 " clip-rule="nonzero"/></clipPath><clipPath id="f2cabd8f0e"><path d="M 204 72 L 220 72 L 220 175 L 204 175 Z M 204 72 " clip-rule="nonzero"/></clipPath><clipPath id="9010cc1d9d"><path d="M 219.695312 361.785156 L 50.886719 293.089844 L 154.914062 37.445312 L 323.722656 106.136719 Z M 219.695312 361.785156 " clip-rule="nonzero"/></clipPath><clipPath id="ce737efd3f"><path d="M 219.695312 361.785156 L 50.886719 293.089844 L 154.914062 37.445312 L 323.722656 106.136719 Z M 219.695312 361.785156 " clip-rule="nonzero"/></clipPath><clipPath id="483bae7cba"><path d="M 219.695312 361.785156 L 50.886719 293.089844 L 154.914062 37.445312 L 323.722656 106.136719 Z M 219.695312 361.785156 " clip-rule="nonzero"/></clipPath><clipPath id="0b81db877c"><path d="M 170 60 L 178 60 L 178 173 L 170 173 Z M 170 60 " clip-rule="nonzero"/></clipPath><clipPath id="ea14a22f07"><path d="M 219.695312 361.785156 L 50.886719 293.089844 L 154.914062 37.445312 L 323.722656 106.136719 Z M 219.695312 361.785156 " clip-rule="nonzero"/></clipPath><clipPath id="68cd47c4e6"><path d="M 219.695312 361.785156 L 50.886719 293.089844 L 154.914062 37.445312 L 323.722656 106.136719 Z M 219.695312 361.785156 " clip-rule="nonzero"/></clipPath><clipPath id="a0df4f273b"><path d="M 219.695312 361.785156 L 50.886719 293.089844 L 154.914062 37.445312 L 323.722656 106.136719 Z M 219.695312 361.785156 " clip-rule="nonzero"/></clipPath><clipPath id="931440af84"><path d="M 187 59 L 194 59 L 194 79 L 187 79 Z M 187 59 " clip-rule="nonzero"/></clipPath><clipPath id="88a1ed8d3b"><path d="M 219.695312 361.785156 L 50.886719 293.089844 L 154.914062 37.445312 L 323.722656 106.136719 Z M 219.695312 361.785156 " clip-rule="nonzero"/></clipPath><clipPath id="19fb5d5334"><path d="M 219.695312 361.785156 L 50.886719 293.089844 L 154.914062 37.445312 L 323.722656 106.136719 Z M 219.695312 361.785156 " clip-rule="nonzero"/></clipPath><clipPath id="b7f5c9085c"><path d="M 219.695312 361.785156 L 50.886719 293.089844 L 154.914062 37.445312 L 323.722656 106.136719 Z M 219.695312 361.785156 " clip-rule="nonzero"/></clipPath><clipPath id="3153691ff6"><path d="M 140 66 L 156 66 L 156 192 L 140 192 Z M 140 66 " clip-rule="nonzero"/></clipPath><clipPath id="7976c59227"><path d="M 219.695312 361.785156 L 50.886719 293.089844 L 154.914062 37.445312 L 323.722656 106.136719 Z M 219.695312 361.785156 " clip-rule="nonzero"/></clipPath><clipPath id="ef5b56857a"><path d="M 219.695312 361.785156 L 50.886719 293.089844 L 154.914062 37.445312 L 323.722656 106.136719 Z M 219.695312 361.785156 " clip-rule="nonzero"/></clipPath><clipPath id="78ba2ce0d2"><path d="M 219.695312 361.785156 L 50.886719 293.089844 L 154.914062 37.445312 L 323.722656 106.136719 Z M 219.695312 361.785156 " clip-rule="nonzero"/></clipPath><clipPath id="b107c50fe6"><path d="M 165 69 L 172 69 L 172 170 L 165 170 Z M 165 69 " clip-rule="nonzero"/></clipPath><clipPath id="3a8e958cae"><path d="M 219.695312 361.785156 L 50.886719 293.089844 L 154.914062 37.445312 L 323.722656 106.136719 Z M 219.695312 361.785156 " clip-rule="nonzero"/></clipPath><clipPath id="56259a7eaa"><path d="M 219.695312 361.785156 L 50.886719 293.089844 L 154.914062 37.445312 L 323.722656 106.136719 Z M 219.695312 361.785156 " clip-rule="nonzero"/></clipPath><clipPath id="a8ab2251df"><path d="M 219.695312 361.785156 L 50.886719 293.089844 L 154.914062 37.445312 L 323.722656 106.136719 Z M 219.695312 361.785156 " clip-rule="nonzero"/></clipPath><clipPath id="732d5df361"><path d="M 127 139 L 165 139 L 165 339 L 127 339 Z M 127 139 " clip-rule="nonzero"/></clipPath><clipPath id="8b8296ea2f"><path d="M 219.695312 361.785156 L 50.886719 293.089844 L 154.914062 37.445312 L 323.722656 106.136719 Z M 219.695312 361.785156 " clip-rule="nonzero"/></clipPath><clipPath id="9a81674357"><path d="M 219.695312 361.785156 L 50.886719 293.089844 L 154.914062 37.445312 L 323.722656 106.136719 Z M 219.695312 361.785156 " clip-rule="nonzero"/></clipPath><clipPath id="001c870ebd"><path d="M 219.695312 361.785156 L 50.886719 293.089844 L 154.914062 37.445312 L 323.722656 106.136719 Z M 219.695312 361.785156 " clip-rule="nonzero"/></clipPath><clipPath id="9367c63cae"><path d="M 129 120 L 146 120 L 146 135 L 129 135 Z M 129 120 " clip-rule="nonzero"/></clipPath><clipPath id="ae1f06c75f"><path d="M 219.695312 361.785156 L 50.886719 293.089844 L 154.914062 37.445312 L 323.722656 106.136719 Z M 219.695312 361.785156 " clip-rule="nonzero"/></clipPath><clipPath id="403068584a"><path d="M 219.695312 361.785156 L 50.886719 293.089844 L 154.914062 37.445312 L 323.722656 106.136719 Z M 219.695312 361.785156 " clip-rule="nonzero"/></clipPath><clipPath id="9c88d2887c"><path d="M 219.695312 361.785156 L 50.886719 293.089844 L 154.914062 37.445312 L 323.722656 106.136719 Z M 219.695312 361.785156 " clip-rule="nonzero"/></clipPath><clipPath id="806b35224d"><path d="M 224 109 L 235 109 L 235 132 L 224 132 Z M 224 109 " clip-rule="nonzero"/></clipPath><clipPath id="30c265a0ad"><path d="M 219.695312 361.785156 L 50.886719 293.089844 L 154.914062 37.445312 L 323.722656 106.136719 Z M 219.695312 361.785156 " clip-rule="nonzero"/></clipPath><clipPath id="6fd3513cc1"><path d="M 219.695312 361.785156 L 50.886719 293.089844 L 154.914062 37.445312 L 323.722656 106.136719 Z M 219.695312 361.785156 " clip-rule="nonzero"/></clipPath><clipPath id="a81e665138"><path d="M 219.695312 361.785156 L 50.886719 293.089844 L 154.914062 37.445312 L 323.722656 106.136719 Z M 219.695312 361.785156 " clip-rule="nonzero"/></clipPath><clipPath id="65b65dd9b3"><path d="M 223 109 L 236 109 L 236 133 L 223 133 Z M 223 109 " clip-rule="nonzero"/></clipPath><clipPath id="d239ac0914"><path d="M 219.695312 361.785156 L 50.886719 293.089844 L 154.914062 37.445312 L 323.722656 106.136719 Z M 219.695312 361.785156 " clip-rule="nonzero"/></clipPath><clipPath id="f78fe50e0e"><path d="M 219.695312 361.785156 L 50.886719 293.089844 L 154.914062 37.445312 L 323.722656 106.136719 Z M 219.695312 361.785156 " clip-rule="nonzero"/></clipPath><clipPath id="10e28552c8"><path d="M 219.695312 361.785156 L 50.886719 293.089844 L 154.914062 37.445312 L 323.722656 106.136719 Z M 219.695312 361.785156 " clip-rule="nonzero"/></clipPath><clipPath id="7b8783557a"><path d="M 194 66 L 207 66 L 207 92 L 194 92 Z M 194 66 " clip-rule="nonzero"/></clipPath><clipPath id="c20ae63743"><path d="M 219.695312 361.785156 L 50.886719 293.089844 L 154.914062 37.445312 L 323.722656 106.136719 Z M 219.695312 361.785156 " clip-rule="nonzero"/></clipPath><clipPath id="466f7b27b1"><path d="M 219.695312 361.785156 L 50.886719 293.089844 L 154.914062 37.445312 L 323.722656 106.136719 Z M 219.695312 361.785156 " clip-rule="nonzero"/></clipPath><clipPath id="5b583ffe39"><path d="M 219.695312 361.785156 L 50.886719 293.089844 L 154.914062 37.445312 L 323.722656 106.136719 Z M 219.695312 361.785156 " clip-rule="nonzero"/></clipPath><clipPath id="f45dad8a51"><path d="M 177 51 L 190 51 L 190 77 L 177 77 Z M 177 51 " clip-rule="nonzero"/></clipPath><clipPath id="185ef9c08d"><path d="M 219.695312 361.785156 L 50.886719 293.089844 L 154.914062 37.445312 L 323.722656 106.136719 Z M 219.695312 361.785156 " clip-rule="nonzero"/></clipPath><clipPath id="1de21a8e62"><path d="M 219.695312 361.785156 L 50.886719 293.089844 L 154.914062 37.445312 L 323.722656 106.136719 Z M 219.695312 361.785156 " clip-rule="nonzero"/></clipPath><clipPath id="fe825afee3"><path d="M 219.695312 361.785156 L 50.886719 293.089844 L 154.914062 37.445312 L 323.722656 106.136719 Z M 219.695312 361.785156 " clip-rule="nonzero"/></clipPath><clipPath id="f19ee6a362"><path d="M 176 50 L 190 50 L 190 78 L 176 78 Z M 176 50 " clip-rule="nonzero"/></clipPath><clipPath id="cd003219a5"><path d="M 219.695312 361.785156 L 50.886719 293.089844 L 154.914062 37.445312 L 323.722656 106.136719 Z M 219.695312 361.785156 " clip-rule="nonzero"/></clipPath><clipPath id="6cb42c38ba"><path d="M 219.695312 361.785156 L 50.886719 293.089844 L 154.914062 37.445312 L 323.722656 106.136719 Z M 219.695312 361.785156 " clip-rule="nonzero"/></clipPath><clipPath id="8cfb94bc6e"><path d="M 219.695312 361.785156 L 50.886719 293.089844 L 154.914062 37.445312 L 323.722656 106.136719 Z M 219.695312 361.785156 " clip-rule="nonzero"/></clipPath><clipPath id="2b3e321671"><path d="M 154 57 L 167 57 L 167 83 L 154 83 Z M 154 57 " clip-rule="nonzero"/></clipPath><clipPath id="37857f0cd1"><path d="M 219.695312 361.785156 L 50.886719 293.089844 L 154.914062 37.445312 L 323.722656 106.136719 Z M 219.695312 361.785156 " clip-rule="nonzero"/></clipPath><clipPath id="e970ac4872"><path d="M 219.695312 361.785156 L 50.886719 293.089844 L 154.914062 37.445312 L 323.722656 106.136719 Z M 219.695312 361.785156 " clip-rule="nonzero"/></clipPath><clipPath id="def2bfeffd"><path d="M 219.695312 361.785156 L 50.886719 293.089844 L 154.914062 37.445312 L 323.722656 106.136719 Z M 219.695312 361.785156 " clip-rule="nonzero"/></clipPath><clipPath id="5d2c71fcf1"><path d="M 154 56 L 167 56 L 167 84 L 154 84 Z M 154 56 " clip-rule="nonzero"/></clipPath><clipPath id="8bcfe7b90e"><path d="M 219.695312 361.785156 L 50.886719 293.089844 L 154.914062 37.445312 L 323.722656 106.136719 Z M 219.695312 361.785156 " clip-rule="nonzero"/></clipPath><clipPath id="cdd850918e"><path d="M 219.695312 361.785156 L 50.886719 293.089844 L 154.914062 37.445312 L 323.722656 106.136719 Z M 219.695312 361.785156 " clip-rule="nonzero"/></clipPath><clipPath id="0efaba303b"><path d="M 219.695312 361.785156 L 50.886719 293.089844 L 154.914062 37.445312 L 323.722656 106.136719 Z M 219.695312 361.785156 " clip-rule="nonzero"/></clipPath><clipPath id="b7741e7fd2"><path d="M 122 116 L 133 116 L 133 140 L 122 140 Z M 122 116 " clip-rule="nonzero"/></clipPath><clipPath id="30d87a9458"><path d="M 219.695312 361.785156 L 50.886719 293.089844 L 154.914062 37.445312 L 323.722656 106.136719 Z M 219.695312 361.785156 " clip-rule="nonzero"/></clipPath><clipPath id="69b499c6c7"><path d="M 219.695312 361.785156 L 50.886719 293.089844 L 154.914062 37.445312 L 323.722656 106.136719 Z M 219.695312 361.785156 " clip-rule="nonzero"/></clipPath><clipPath id="059b47dd90"><path d="M 219.695312 361.785156 L 50.886719 293.089844 L 154.914062 37.445312 L 323.722656 106.136719 Z M 219.695312 361.785156 " clip-rule="nonzero"/></clipPath><clipPath id="9249e21ff4"><path d="M 122 115 L 134 115 L 134 141 L 122 141 Z M 122 115 " clip-rule="nonzero"/></clipPath><clipPath id="021afa0b1b"><path d="M 219.695312 361.785156 L 50.886719 293.089844 L 154.914062 37.445312 L 323.722656 106.136719 Z M 219.695312 361.785156 " clip-rule="nonzero"/></clipPath><clipPath id="e6c4b8fb69"><path d="M 219.695312 361.785156 L 50.886719 293.089844 L 154.914062 37.445312 L 323.722656 106.136719 Z M 219.695312 361.785156 " clip-rule="nonzero"/></clipPath><clipPath id="34ce4e5554"><path d="M 219.695312 361.785156 L 50.886719 293.089844 L 154.914062 37.445312 L 323.722656 106.136719 Z M 219.695312 361.785156 " clip-rule="nonzero"/></clipPath><clipPath id="428cb2c014"><path d="M 202 138 L 209 138 L 209 141 L 202 141 Z M 202 138 " clip-rule="nonzero"/></clipPath><clipPath id="6879dc4f21"><path d="M 219.695312 361.785156 L 50.886719 293.089844 L 154.914062 37.445312 L 323.722656 106.136719 Z M 219.695312 361.785156 " clip-rule="nonzero"/></clipPath><clipPath id="ef374327ca"><path d="M 219.695312 361.785156 L 50.886719 293.089844 L 154.914062 37.445312 L 323.722656 106.136719 Z M 219.695312 361.785156 " clip-rule="nonzero"/></clipPath><clipPath id="4edaa17e1e"><path d="M 219.695312 361.785156 L 50.886719 293.089844 L 154.914062 37.445312 L 323.722656 106.136719 Z M 219.695312 361.785156 " clip-rule="nonzero"/></clipPath><clipPath id="51aa1e17a3"><path d="M 179 121 L 186 121 L 186 124 L 179 124 Z M 179 121 " clip-rule="nonzero"/></clipPath><clipPath id="e7c058bae0"><path d="M 219.695312 361.785156 L 50.886719 293.089844 L 154.914062 37.445312 L 323.722656 106.136719 Z M 219.695312 361.785156 " clip-rule="nonzero"/></clipPath><clipPath id="3537574350"><path d="M 219.695312 361.785156 L 50.886719 293.089844 L 154.914062 37.445312 L 323.722656 106.136719 Z M 219.695312 361.785156 " clip-rule="nonzero"/></clipPath><clipPath id="2d2f77ed71"><path d="M 219.695312 361.785156 L 50.886719 293.089844 L 154.914062 37.445312 L 323.722656 106.136719 Z M 219.695312 361.785156 " clip-rule="nonzero"/></clipPath><clipPath id="88a861b8db"><path d="M 153 128 L 160 128 L 160 131 L 153 131 Z M 153 128 " clip-rule="nonzero"/></clipPath><clipPath id="c85aa38be4"><path d="M 219.695312 361.785156 L 50.886719 293.089844 L 154.914062 37.445312 L 323.722656 106.136719 Z M 219.695312 361.785156 " clip-rule="nonzero"/></clipPath><clipPath id="68296f2354"><path d="M 219.695312 361.785156 L 50.886719 293.089844 L 154.914062 37.445312 L 323.722656 106.136719 Z M 219.695312 361.785156 " clip-rule="nonzero"/></clipPath><clipPath id="16dfd27780"><path d="M 219.695312 361.785156 L 50.886719 293.089844 L 154.914062 37.445312 L 323.722656 106.136719 Z M 219.695312 361.785156 " clip-rule="nonzero"/></clipPath><clipPath id="c281036f4e"><path d="M 200 183 L 203 183 L 203 190 L 200 190 Z M 200 183 " clip-rule="nonzero"/></clipPath><clipPath id="918fa69732"><path d="M 219.695312 361.785156 L 50.886719 293.089844 L 154.914062 37.445312 L 323.722656 106.136719 Z M 219.695312 361.785156 " clip-rule="nonzero"/></clipPath><clipPath id="1358caea57"><path d="M 219.695312 361.785156 L 50.886719 293.089844 L 154.914062 37.445312 L 323.722656 106.136719 Z M 219.695312 361.785156 " clip-rule="nonzero"/></clipPath><clipPath id="2eb9633501"><path d="M 219.695312 361.785156 L 50.886719 293.089844 L 154.914062 37.445312 L 323.722656 106.136719 Z M 219.695312 361.785156 " clip-rule="nonzero"/></clipPath><clipPath id="2dfc391f1c"><path d="M 169 181 L 173 181 L 173 189 L 169 189 Z M 169 181 " clip-rule="nonzero"/></clipPath><clipPath id="79d2682549"><path d="M 219.695312 361.785156 L 50.886719 293.089844 L 154.914062 37.445312 L 323.722656 106.136719 Z M 219.695312 361.785156 " clip-rule="nonzero"/></clipPath><clipPath id="f2a21cfc87"><path d="M 219.695312 361.785156 L 50.886719 293.089844 L 154.914062 37.445312 L 323.722656 106.136719 Z M 219.695312 361.785156 " clip-rule="nonzero"/></clipPath><clipPath id="cd071c0608"><path d="M 219.695312 361.785156 L 50.886719 293.089844 L 154.914062 37.445312 L 323.722656 106.136719 Z M 219.695312 361.785156 " clip-rule="nonzero"/></clipPath></defs><g clip-path="url(#4beb791702)"><g clip-path="url(#4e9cf226bc)"><g clip-path="url(#5f414268c5)"><g clip-path="url(#7d72c12d3f)"><path fill="#000000" d="M 224.058594 117.605469 C 221.734375 119.953125 221.160156 123.566406 221.09375 126.734375 C 221 130.234375 221.402344 133.71875 221.5 137.265625 C 221.671875 144.449219 221.28125 151.597656 220.335938 158.714844 C 219.792969 162.734375 219.089844 166.683594 218.214844 170.609375 C 218.085938 171.164062 218.9375 171.234375 219.050781 170.714844 C 220.582031 163.847656 221.585938 156.90625 222.0625 149.890625 C 222.296875 146.429688 222.402344 142.964844 222.378906 139.496094 C 222.355469 136.09375 222.101562 132.722656 221.976562 129.308594 C 221.816406 125.558594 221.917969 120.996094 224.734375 118.148438 C 225.117188 117.765625 224.441406 117.253906 224.0625 117.632812 Z M 224.058594 117.605469 " fill-opacity="1" fill-rule="nonzero"/></g></g></g></g><g clip-path="url(#c9a54cbfde)"><g clip-path="url(#4bccca21ad)"><g clip-path="url(#9997807929)"><g clip-path="url(#5dd41dbb7e)"><path fill="#000000" d="M 228.898438 338.855469 L 225.265625 314.691406 C 224.148438 307.261719 222.847656 299.835938 222.058594 292.363281 C 221.296875 285.167969 221.15625 277.683594 223.429688 270.738281 C 223.992188 269.027344 224.789062 267.402344 225.285156 265.675781 C 225.691406 264.175781 225.738281 262.667969 225.425781 261.148438 C 225.144531 259.695312 224.640625 258.296875 224.222656 256.878906 C 223.6875 255.101562 223.453125 253.289062 223.515625 251.433594 C 223.648438 247.902344 224.730469 244.5 225.792969 241.160156 L 229.425781 229.730469 C 231.730469 222.453125 234.128906 215.1875 236.234375 207.851562 C 238.253906 201.046875 239.671875 194.121094 240.496094 187.070312 C 241.234375 179.851562 240.710938 172.625 239.972656 165.417969 C 239.207031 157.960938 238.246094 150.496094 238.375 142.972656 C 238.488281 136.1875 239.257812 129.101562 237.03125 122.535156 C 236.519531 120.972656 235.703125 119.585938 234.589844 118.375 C 234.222656 117.976562 233.554688 118.492188 233.921875 118.882812 C 236.386719 121.519531 236.960938 125.144531 237.425781 128.589844 C 237.910156 132.226562 237.777344 135.886719 237.640625 139.542969 C 237.367188 146.871094 237.933594 154.105469 238.714844 161.394531 C 239.496094 168.679688 240.328125 176.097656 239.929688 183.449219 C 239.539062 190.65625 238.066406 197.785156 236.210938 204.742188 C 234.3125 211.882812 231.972656 218.898438 229.738281 225.941406 L 226.121094 237.359375 C 225.046875 240.722656 223.847656 244.089844 223.152344 247.5625 C 222.441406 250.746094 222.53125 253.910156 223.410156 257.050781 C 223.933594 258.585938 224.355469 260.148438 224.683594 261.738281 C 224.921875 263.671875 224.636719 265.527344 223.832031 267.304688 C 222.515625 270.519531 221.609375 273.847656 221.117188 277.285156 C 220.707031 280.71875 220.605469 284.164062 220.824219 287.617188 C 221.210938 294.835938 222.5 301.988281 223.597656 309.136719 C 224.796875 317.125 226 325.113281 227.199219 333.097656 L 228.082031 338.984375 C 228.097656 339.097656 228.152344 339.191406 228.246094 339.261719 C 228.335938 339.332031 228.441406 339.359375 228.558594 339.34375 C 228.671875 339.328125 228.765625 339.273438 228.835938 339.179688 C 228.90625 339.085938 228.933594 338.984375 228.917969 338.867188 Z M 228.898438 338.855469 " fill-opacity="1" fill-rule="nonzero"/></g></g></g></g><g clip-path="url(#4a5feae18b)"><g clip-path="url(#77dcb90eda)"><g clip-path="url(#b0130711c9)"><g clip-path="url(#d6a5aaa17e)"><path fill="#000000" d="M 194.449219 75.011719 C 189.972656 80.457031 191.414062 87.992188 191.941406 94.4375 C 192.414062 100.253906 192.808594 106.078125 193.0625 111.902344 C 193.335938 118.03125 193.449219 124.167969 193.46875 130.296875 C 193.484375 133.871094 193.429688 137.4375 193.417969 141.011719 C 193.40625 144.585938 193.839844 147.96875 194.09375 151.453125 C 194.386719 155.203125 194.292969 158.992188 194.773438 162.738281 C 195.007812 164.542969 195.144531 166.355469 195.183594 168.175781 C 195.175781 169.984375 195.386719 171.769531 195.8125 173.53125 C 195.949219 174.046875 196.792969 173.929688 196.644531 173.414062 C 195.816406 170.304688 196.175781 167.109375 195.792969 163.957031 C 195.375 160.679688 195.222656 157.414062 195.078125 154.117188 C 194.933594 150.648438 194.484375 147.214844 194.320312 143.746094 C 194.148438 140.175781 194.304688 136.582031 194.3125 133.015625 C 194.328125 121.195312 193.933594 109.394531 193.035156 97.609375 C 192.761719 94.058594 192.332031 90.503906 192.167969 86.960938 C 191.976562 82.957031 192.480469 78.734375 195.109375 75.535156 C 195.457031 75.121094 194.785156 74.605469 194.445312 75.023438 Z M 194.449219 75.011719 " fill-opacity="1" fill-rule="nonzero"/></g></g></g></g><g clip-path="url(#f2cabd8f0e)"><g clip-path="url(#9010cc1d9d)"><g clip-path="url(#ce737efd3f)"><g clip-path="url(#483bae7cba)"><path fill="#000000" d="M 219.828125 174.09375 C 218.007812 167.460938 216.195312 160.777344 215.796875 153.878906 C 215.59375 150.320312 215.703125 146.757812 215.738281 143.191406 C 215.773438 139.628906 215.6875 136.105469 215.46875 132.566406 C 215.046875 125.640625 214.429688 118.714844 213.875 111.808594 C 213.324219 105.011719 212.660156 98.21875 211.574219 91.5 C 210.996094 87.871094 210.28125 84.269531 209.429688 80.691406 C 208.746094 77.785156 207.6875 74.695312 205.105469 72.917969 C 204.660156 72.609375 204.144531 73.277344 204.59375 73.589844 C 207.023438 75.261719 207.980469 78.183594 208.625 80.914062 C 209.355469 84.039062 209.996094 87.1875 210.53125 90.351562 C 211.648438 96.996094 212.339844 103.703125 212.90625 110.410156 C 213.46875 117.117188 214.046875 124.007812 214.5 130.800781 C 214.75 134.375 214.921875 137.957031 214.910156 141.535156 C 214.894531 144.949219 214.773438 148.371094 214.855469 151.804688 C 215.050781 159.496094 216.949219 166.875 218.976562 174.253906 C 219.117188 174.773438 219.953125 174.652344 219.8125 174.136719 Z M 219.828125 174.09375 " fill-opacity="1" fill-rule="nonzero"/></g></g></g></g><g clip-path="url(#0b81db877c)"><g clip-path="url(#ea14a22f07)"><g clip-path="url(#68cd47c4e6)"><g clip-path="url(#a0df4f273b)"><path fill="#000000" d="M 177.054688 60.851562 C 173.195312 65.21875 172.636719 71.242188 172.679688 76.816406 C 172.707031 79.738281 172.734375 82.652344 172.632812 85.558594 C 172.527344 88.464844 172.414062 91.523438 172.40625 94.476562 C 172.386719 99.914062 172.214844 105.390625 172.148438 110.851562 C 172.101562 114.425781 172.0625 118.007812 172.136719 121.585938 C 172.1875 123.894531 172.398438 126.191406 172.484375 128.496094 C 172.746094 135.609375 172.585938 142.75 172.296875 149.84375 C 172.148438 153.722656 171.953125 157.605469 171.640625 161.476562 C 171.460938 164.40625 171.101562 167.3125 170.570312 170.195312 C 170.476562 170.644531 170.378906 171.09375 170.25 171.53125 C 170.121094 171.96875 170.878906 172.394531 171.03125 171.851562 C 171.65625 169.382812 172.054688 166.878906 172.230469 164.339844 C 172.597656 160.710938 172.8125 157.058594 172.988281 153.410156 C 173.34375 145.914062 173.507812 138.394531 173.363281 130.894531 C 173.320312 128.609375 173.152344 126.339844 173.035156 124.058594 C 172.867188 120.800781 172.898438 117.539062 172.917969 114.277344 C 172.964844 108.785156 173.195312 103.296875 173.25 97.808594 C 173.269531 95.503906 173.222656 93.203125 173.285156 90.898438 C 173.363281 87.96875 173.492188 85.042969 173.523438 82.113281 C 173.59375 76.425781 172.949219 70.542969 175.289062 65.1875 C 175.890625 63.785156 176.695312 62.503906 177.699219 61.355469 C 178.058594 60.949219 177.382812 60.441406 177.027344 60.839844 Z M 177.054688 60.851562 " fill-opacity="1" fill-rule="nonzero"/></g></g></g></g><g clip-path="url(#931440af84)"><g clip-path="url(#88a1ed8d3b)"><g clip-path="url(#19fb5d5334)"><g clip-path="url(#b7f5c9085c)"><path fill="#000000" d="M 193.417969 77.835938 C 193.207031 74.507812 193.152344 71.105469 192.574219 67.808594 C 192.042969 64.820312 190.910156 62.007812 188.652344 59.910156 C 188.25 59.539062 187.742188 60.210938 188.136719 60.578125 C 190.40625 62.710938 191.40625 65.625 191.855469 68.621094 C 192.304688 71.621094 192.386719 74.851562 192.585938 77.953125 C 192.621094 78.496094 193.453125 78.375 193.417969 77.832031 Z M 193.417969 77.835938 " fill-opacity="1" fill-rule="nonzero"/></g></g></g></g><g clip-path="url(#3153691ff6)"><g clip-path="url(#7976c59227)"><g clip-path="url(#ef5b56857a)"><g clip-path="url(#78ba2ce0d2)"><path fill="#000000" d="M 154.855469 66.734375 C 151.167969 69.472656 149.9375 74.082031 149.023438 78.367188 C 147.980469 83.289062 147.585938 88.316406 147.09375 93.324219 C 146.21875 102.328125 145.273438 111.324219 144.757812 120.351562 C 144.265625 128.863281 144.546875 137.394531 144.101562 145.902344 C 143.933594 149.300781 143.621094 152.6875 143.253906 156.066406 C 142.828125 160.09375 142.207031 164.117188 141.9375 168.148438 C 141.667969 172.179688 141.800781 176.121094 141.917969 180.125 C 141.992188 183.078125 142.121094 186.261719 141.226562 189.09375 C 141.035156 189.6875 140.792969 190.261719 140.496094 190.8125 C 140.230469 191.308594 141.011719 191.628906 141.277344 191.128906 C 142.574219 188.726562 142.757812 185.894531 142.785156 183.210938 C 142.828125 179.542969 142.589844 175.867188 142.640625 172.203125 C 142.738281 164.507812 144.203125 156.898438 144.765625 149.238281 C 145.375 141.011719 145.070312 132.8125 145.410156 124.59375 C 145.777344 115.855469 146.621094 107.148438 147.464844 98.453125 C 147.949219 93.539062 148.328125 88.605469 148.992188 83.71875 C 149.316406 81.191406 149.792969 78.691406 150.417969 76.222656 C 151.011719 73.96875 151.707031 71.695312 153.085938 69.789062 C 153.730469 68.878906 154.5 68.09375 155.394531 67.425781 C 155.828125 67.101562 155.3125 66.4375 154.878906 66.757812 Z M 154.855469 66.734375 " fill-opacity="1" fill-rule="nonzero"/></g></g></g></g><g clip-path="url(#b107c50fe6)"><g clip-path="url(#3a8e958cae)"><g clip-path="url(#56259a7eaa)"><g clip-path="url(#a8ab2251df)"><path fill="#000000" d="M 171.554688 168.878906 C 171.144531 168.089844 170.867188 167.261719 170.71875 166.386719 C 170.414062 165.054688 170.1875 163.75 170 162.398438 C 169.550781 159.1875 169.25 155.984375 169.007812 152.765625 C 168.8125 150.265625 168.65625 147.78125 168.574219 145.289062 C 168.5 143.019531 168.4375 140.742188 168.570312 138.476562 C 168.65625 137.058594 168.886719 135.65625 168.972656 134.238281 C 169.148438 131.28125 169.164062 128.328125 169.152344 125.371094 C 169.207031 122.742188 169.117188 120.117188 168.878906 117.5 C 168.0625 110.84375 167.851562 104.167969 168.242188 97.472656 C 168.777344 89.285156 170.1875 80.765625 167.789062 72.742188 C 167.503906 71.75 167.136719 70.785156 166.699219 69.847656 C 166.464844 69.359375 165.683594 69.683594 165.921875 70.171875 C 167.761719 73.984375 168.25 78.429688 168.292969 82.605469 C 168.335938 86.78125 167.894531 91.035156 167.5625 95.242188 C 167.210938 99.761719 167.136719 104.292969 167.347656 108.824219 C 167.449219 111.554688 167.613281 114.328125 167.964844 117.042969 C 168.207031 119.28125 168.324219 121.527344 168.304688 123.78125 C 168.335938 126.851562 168.324219 129.929688 168.199219 132.996094 C 168.160156 133.972656 168.109375 134.945312 167.980469 135.902344 C 167.691406 138.417969 167.59375 140.9375 167.695312 143.464844 C 167.75 146.023438 167.878906 148.589844 168.050781 151.148438 C 168.269531 154.359375 168.542969 157.574219 168.9375 160.765625 C 169.25 163.3125 169.542969 165.964844 170.417969 168.378906 C 170.539062 168.734375 170.699219 169.070312 170.890625 169.394531 C 171.175781 169.855469 171.839844 169.339844 171.558594 168.878906 Z M 171.554688 168.878906 " fill-opacity="1" fill-rule="nonzero"/></g></g></g></g><g clip-path="url(#732d5df361)"><g clip-path="url(#8b8296ea2f)"><g clip-path="url(#9a81674357)"><g clip-path="url(#001c870ebd)"><path fill="#000000" d="M 127.761719 139.746094 C 128.28125 143.6875 128.730469 147.636719 129.214844 151.582031 C 129.695312 155.527344 130.253906 159.46875 130.457031 163.441406 C 130.902344 170.679688 130.777344 177.90625 130.082031 185.121094 C 129.765625 188.21875 129.675781 191.402344 130.890625 194.339844 C 131.617188 196.101562 132.761719 197.628906 133.652344 199.300781 C 134.527344 200.992188 135.261719 202.742188 135.863281 204.546875 C 138.0625 210.84375 139.554688 217.335938 141.152344 223.796875 C 142.753906 230.261719 144.386719 236.617188 146.980469 242.660156 C 148.207031 245.617188 149.714844 248.421875 151.507812 251.074219 C 153.550781 254.03125 155.902344 256.773438 157.097656 260.214844 C 158.21875 263.425781 158.53125 266.851562 158.902344 270.21875 C 159.203125 272.90625 159.476562 275.601562 159.722656 278.300781 C 160.296875 284.589844 160.785156 290.84375 161.21875 297.132812 C 162.070312 309.558594 162.78125 322 163.351562 334.457031 C 163.414062 335.695312 163.46875 336.9375 163.519531 338.1875 C 163.542969 338.730469 164.378906 338.613281 164.355469 338.070312 C 163.824219 325.984375 163.167969 313.910156 162.386719 301.839844 C 161.976562 295.40625 161.5 288.96875 160.949219 282.53125 C 160.460938 276.804688 160 271.039062 159.152344 265.355469 C 158.734375 261.933594 157.640625 258.738281 155.867188 255.777344 C 153.988281 252.796875 151.707031 250.125 150.015625 247.019531 C 146.851562 241.21875 144.886719 234.835938 143.207031 228.472656 C 141.53125 222.109375 140.164062 215.695312 138.3125 209.394531 C 137.316406 206.003906 136.246094 202.535156 134.652344 199.386719 C 133.8125 197.738281 132.691406 196.234375 131.910156 194.550781 C 131.179688 192.945312 130.789062 191.261719 130.730469 189.5 C 130.585938 186.277344 131.316406 183.078125 131.410156 179.875 C 131.539062 176.164062 131.519531 172.433594 131.472656 168.714844 C 131.382812 160.808594 130.234375 153.007812 129.28125 145.167969 C 129.054688 143.320312 128.835938 141.476562 128.597656 139.632812 C 128.578125 139.519531 128.523438 139.425781 128.433594 139.355469 C 128.339844 139.285156 128.234375 139.257812 128.121094 139.273438 C 128.003906 139.289062 127.914062 139.34375 127.84375 139.4375 C 127.773438 139.527344 127.746094 139.632812 127.761719 139.746094 Z M 127.761719 139.746094 " fill-opacity="1" fill-rule="nonzero"/></g></g></g></g><g clip-path="url(#9367c63cae)"><g clip-path="url(#ae1f06c75f)"><g clip-path="url(#403068584a)"><g clip-path="url(#9c88d2887c)"><path fill="#000000" d="M 145.1875 134.371094 C 144.707031 132.539062 143.980469 130.8125 143.003906 129.191406 C 142.027344 127.566406 140.839844 126.113281 139.445312 124.832031 C 136.875 122.375 133.105469 120.066406 129.390625 120.53125 C 129.273438 120.550781 129.179688 120.605469 129.113281 120.699219 C 129.042969 120.792969 129.015625 120.894531 129.03125 121.011719 C 129.050781 121.125 129.105469 121.21875 129.199219 121.289062 C 129.289062 121.359375 129.394531 121.386719 129.511719 121.371094 C 133 120.925781 136.53125 123.203125 138.933594 125.5 C 140.246094 126.707031 141.367188 128.070312 142.289062 129.597656 C 143.210938 131.121094 143.902344 132.742188 144.363281 134.460938 C 144.488281 134.988281 145.332031 134.855469 145.199219 134.347656 Z M 145.1875 134.371094 " fill-opacity="1" fill-rule="nonzero"/></g></g></g></g><g clip-path="url(#806b35224d)"><g clip-path="url(#30c265a0ad)"><g clip-path="url(#6fd3513cc1)"><g clip-path="url(#a81e665138)"><path fill="#000000" d="M 232.75 112.648438 C 233.941406 115.257812 234.238281 118.636719 234.539062 121.246094 C 234.761719 122.722656 234.867188 124.207031 234.855469 125.699219 C 234.808594 126.800781 234.960938 128.035156 234.5625 129.078125 C 233.597656 131.597656 229.601562 132.511719 227.359375 131.1875 C 225.917969 130.351562 225.203125 128.648438 224.953125 127.007812 C 224.621094 124.355469 224.445312 121.6875 224.433594 119.011719 C 224.378906 117.171875 224.28125 115.367188 224.351562 113.53125 C 224.328125 112.78125 224.460938 112.058594 224.75 111.367188 C 225.503906 109.859375 227.496094 109.359375 229.195312 109.542969 C 229.628906 109.574219 230.042969 109.675781 230.445312 109.84375 C 230.902344 110.082031 231.289062 110.402344 231.605469 110.808594 C 232.0625 111.375 232.445312 111.988281 232.75 112.648438 Z M 232.75 112.648438 " fill-opacity="1" fill-rule="nonzero"/></g></g></g></g><g clip-path="url(#65b65dd9b3)"><g clip-path="url(#d239ac0914)"><g clip-path="url(#f78fe50e0e)"><g clip-path="url(#10e28552c8)"><path fill="#000000" d="M 232.339844 112.804688 C 233.695312 115.847656 233.898438 119.316406 234.257812 122.585938 C 234.378906 123.597656 234.433594 124.613281 234.421875 125.632812 C 234.460938 126.53125 234.421875 127.425781 234.3125 128.316406 C 234.027344 129.871094 232.648438 130.824219 231.179688 131.179688 C 229.832031 131.507812 228.210938 131.40625 227.097656 130.480469 C 225.730469 129.359375 225.40625 127.550781 225.210938 125.910156 C 224.996094 124.007812 224.933594 122.121094 224.867188 120.21875 C 224.804688 118.316406 224.710938 116.386719 224.730469 114.476562 C 224.742188 113.445312 224.660156 112.167969 225.265625 111.269531 C 225.816406 110.554688 226.542969 110.132812 227.4375 110.003906 C 228.402344 109.777344 229.347656 109.84375 230.273438 110.207031 C 231.289062 110.691406 231.894531 111.859375 232.339844 112.804688 C 232.566406 113.292969 233.347656 112.96875 233.117188 112.476562 C 232.722656 111.566406 232.179688 110.757812 231.484375 110.050781 C 230.753906 109.40625 229.902344 109.078125 228.929688 109.074219 C 227.363281 108.984375 225.542969 109.394531 224.601562 110.761719 C 224.09375 111.636719 223.863281 112.582031 223.917969 113.59375 C 223.878906 114.71875 223.902344 115.839844 223.933594 116.96875 C 224 119.253906 224.039062 121.554688 224.175781 123.835938 C 224.308594 125.804688 224.398438 127.964844 225.417969 129.730469 C 225.808594 130.433594 226.34375 131 227.023438 131.433594 C 227.699219 131.863281 228.441406 132.109375 229.246094 132.164062 C 230.050781 132.246094 230.839844 132.171875 231.617188 131.945312 C 232.394531 131.722656 233.101562 131.359375 233.738281 130.863281 C 235.273438 129.574219 235.226562 127.835938 235.261719 125.96875 C 235.238281 123.628906 235.042969 121.300781 234.679688 118.988281 C 234.46875 116.734375 233.9375 114.5625 233.085938 112.464844 C 232.914062 111.988281 232.140625 112.316406 232.339844 112.804688 Z M 232.339844 112.804688 " fill-opacity="1" fill-rule="nonzero"/></g></g></g></g><g clip-path="url(#7b8783557a)"><g clip-path="url(#c20ae63743)"><g clip-path="url(#466f7b27b1)"><g clip-path="url(#5b583ffe39)"><path fill="#000000" d="M 204.105469 70.078125 C 205.035156 73.195312 205.691406 76.371094 206.070312 79.601562 C 206.316406 81.238281 206.433594 82.882812 206.421875 84.539062 C 206.371094 85.761719 206.535156 87.136719 206.105469 88.292969 C 205.039062 91.085938 200.621094 92.078125 198.128906 90.628906 C 196.53125 89.703125 195.726562 87.835938 195.453125 86 C 195.085938 83.054688 194.894531 80.097656 194.875 77.128906 C 194.804688 74.800781 194.554688 72.386719 195.117188 70.089844 C 196.21875 65.535156 202.8125 65.691406 204.105469 70.078125 Z M 204.105469 70.078125 " fill-opacity="1" fill-rule="nonzero"/><path fill="#000000" d="M 203.726562 70.21875 C 204.359375 72.371094 204.867188 74.550781 205.246094 76.761719 C 205.664062 79.007812 205.914062 81.273438 206.003906 83.558594 C 206.050781 84.703125 206.03125 85.84375 205.941406 86.984375 C 205.878906 87.957031 205.496094 88.777344 204.789062 89.445312 C 204.125 90.007812 203.375 90.40625 202.535156 90.644531 C 201.699219 90.882812 200.847656 90.933594 199.988281 90.804688 C 197.976562 90.523438 196.710938 89.058594 196.136719 87.191406 C 195.484375 85.058594 195.464844 82.679688 195.382812 80.460938 C 195.289062 78.144531 195.152344 75.824219 195.171875 73.519531 C 195.175781 71.785156 195.226562 69.65625 196.523438 68.335938 C 198.792969 66.023438 202.804688 67.296875 203.726562 70.246094 C 203.890625 70.765625 204.664062 70.433594 204.503906 69.917969 C 204.386719 69.570312 204.234375 69.238281 204.046875 68.917969 C 203.863281 68.601562 203.644531 68.308594 203.394531 68.035156 C 203.148438 67.761719 202.871094 67.519531 202.574219 67.304688 C 202.273438 67.089844 201.957031 66.90625 201.617188 66.757812 C 201.28125 66.609375 200.929688 66.5 200.570312 66.421875 C 200.210938 66.347656 199.84375 66.3125 199.476562 66.3125 C 199.109375 66.3125 198.742188 66.351562 198.382812 66.425781 C 198.023438 66.503906 197.675781 66.617188 197.339844 66.765625 C 196.628906 67.101562 196.039062 67.582031 195.5625 68.199219 C 195.082031 68.820312 194.773438 69.515625 194.632812 70.285156 C 194.078125 72.792969 194.40625 75.425781 194.480469 77.96875 C 194.488281 80.675781 194.671875 83.375 195.027344 86.0625 C 195.351562 88.050781 196.234375 90.125 198.109375 91.105469 C 201.390625 92.816406 206.40625 91.011719 206.792969 87.09375 C 206.980469 84.191406 206.828125 81.304688 206.335938 78.433594 C 205.933594 75.550781 205.320312 72.714844 204.488281 69.925781 C 204.339844 69.394531 203.570312 69.726562 203.726562 70.21875 Z M 203.726562 70.21875 " fill-opacity="1" fill-rule="nonzero"/></g></g></g></g><g clip-path="url(#f45dad8a51)"><g clip-path="url(#185ef9c08d)"><g clip-path="url(#1de21a8e62)"><g clip-path="url(#fe825afee3)"><path fill="#000000" d="M 187.414062 55.050781 C 188.1875 58.347656 188.671875 61.683594 188.867188 65.0625 C 189.023438 66.777344 189.042969 68.496094 188.933594 70.210938 C 188.800781 71.476562 188.890625 72.914062 188.359375 74.085938 C 187.074219 76.921875 182.425781 77.683594 179.921875 76.023438 C 178.320312 74.964844 177.613281 72.957031 177.429688 71.046875 C 177.226562 67.96875 177.210938 64.886719 177.375 61.804688 C 177.441406 59.375 177.324219 56.855469 178.050781 54.503906 C 179.492188 49.847656 186.332031 50.425781 187.414062 55.050781 Z M 187.414062 55.050781 " fill-opacity="1" fill-rule="nonzero"/></g></g></g></g><g clip-path="url(#f19ee6a362)"><g clip-path="url(#cd003219a5)"><g clip-path="url(#6cb42c38ba)"><g clip-path="url(#8cfb94bc6e)"><path fill="#000000" d="M 186.992188 55.109375 C 187.527344 57.402344 187.925781 59.714844 188.191406 62.050781 C 188.511719 64.492188 188.640625 66.941406 188.570312 69.398438 C 188.464844 71.433594 188.625 73.9375 186.839844 75.308594 C 186.109375 75.828125 185.300781 76.179688 184.417969 76.355469 C 183.535156 76.535156 182.65625 76.523438 181.777344 76.328125 C 179.742188 75.898438 178.527344 74.273438 178.066406 72.324219 C 177.535156 70.074219 177.652344 67.609375 177.699219 65.320312 C 177.742188 63.03125 177.75 60.546875 177.886719 58.175781 C 177.988281 56.34375 178.167969 54.050781 179.617188 52.761719 C 182.0625 50.550781 186.214844 51.980469 186.992188 55.109375 C 187.121094 55.628906 187.960938 55.503906 187.832031 54.992188 C 187.738281 54.625 187.605469 54.273438 187.4375 53.933594 C 187.269531 53.59375 187.070312 53.277344 186.835938 52.980469 C 186.601562 52.679688 186.339844 52.410156 186.050781 52.167969 C 185.761719 51.921875 185.449219 51.710938 185.113281 51.53125 C 184.78125 51.355469 184.433594 51.210938 184.070312 51.101562 C 183.707031 50.996094 183.335938 50.925781 182.957031 50.894531 C 182.582031 50.863281 182.207031 50.875 181.828125 50.921875 C 181.453125 50.96875 181.085938 51.050781 180.730469 51.175781 C 176.273438 52.679688 177.035156 58.867188 176.925781 62.539062 C 176.789062 65.3125 176.8125 68.078125 176.996094 70.847656 C 177.175781 72.925781 177.882812 75.203125 179.742188 76.390625 C 182.753906 78.3125 188.078125 77.207031 189.019531 73.441406 C 189.328125 71.921875 189.464844 70.390625 189.433594 68.84375 C 189.457031 67.300781 189.335938 65.773438 189.238281 64.214844 C 189.007812 61.101562 188.542969 58.023438 187.835938 54.980469 C 187.710938 54.464844 186.851562 54.566406 186.992188 55.109375 Z M 186.992188 55.109375 " fill-opacity="1" fill-rule="nonzero"/></g></g></g></g><g clip-path="url(#2b3e321671)"><g clip-path="url(#37857f0cd1)"><g clip-path="url(#e970ac4872)"><g clip-path="url(#def2bfeffd)"><path fill="#000000" d="M 165.613281 61.371094 C 166.132812 64.71875 166.363281 68.082031 166.304688 71.46875 C 166.332031 73.1875 166.21875 74.902344 165.976562 76.605469 C 165.75 77.859375 165.730469 79.292969 165.113281 80.425781 C 163.621094 83.15625 158.921875 83.558594 156.550781 81.714844 C 155.035156 80.539062 154.480469 78.484375 154.445312 76.570312 C 154.472656 73.492188 154.6875 70.429688 155.078125 67.378906 C 155.332031 64.957031 155.410156 62.4375 156.308594 60.152344 C 158.105469 55.597656 164.890625 56.675781 165.613281 61.371094 Z M 165.613281 61.371094 " fill-opacity="1" fill-rule="nonzero"/></g></g></g></g><g clip-path="url(#5d2c71fcf1)"><g clip-path="url(#8bcfe7b90e)"><g clip-path="url(#cdd850918e)"><g clip-path="url(#0efaba303b)"><path fill="#000000" d="M 165.191406 61.4375 C 165.550781 63.761719 165.773438 66.101562 165.859375 68.453125 C 165.992188 70.90625 165.929688 73.359375 165.671875 75.804688 C 165.414062 77.820312 165.375 80.296875 163.503906 81.527344 C 162.742188 81.992188 161.917969 82.28125 161.03125 82.394531 C 160.144531 82.507812 159.269531 82.4375 158.414062 82.183594 C 153.761719 80.820312 154.796875 74.59375 155.140625 70.953125 C 155.371094 68.507812 155.558594 66.039062 155.894531 63.609375 C 156.152344 61.789062 156.527344 59.582031 158.125 58.425781 C 160.789062 56.484375 164.667969 58.316406 165.191406 61.4375 C 165.285156 61.96875 166.121094 61.855469 166.03125 61.316406 C 165.960938 60.949219 165.859375 60.589844 165.71875 60.242188 C 165.574219 59.894531 165.402344 59.566406 165.191406 59.253906 C 164.984375 58.945312 164.742188 58.65625 164.476562 58.394531 C 164.207031 58.132812 163.917969 57.898438 163.601562 57.695312 C 163.285156 57.492188 162.953125 57.324219 162.601562 57.191406 C 162.25 57.054688 161.890625 56.957031 161.519531 56.898438 C 161.148438 56.835938 160.777344 56.8125 160.402344 56.828125 C 160.027344 56.84375 159.65625 56.898438 159.292969 56.988281 C 154.707031 58.148438 154.996094 64.394531 154.605469 68.09375 C 154.230469 70.929688 154.042969 73.78125 154.039062 76.640625 C 154.097656 78.699219 154.710938 80.964844 156.503906 82.203125 C 159.445312 84.238281 164.761719 83.4375 165.882812 79.699219 C 166.261719 78.246094 166.496094 76.769531 166.589844 75.269531 C 166.738281 73.683594 166.742188 72.082031 166.71875 70.480469 C 166.714844 67.40625 166.480469 64.351562 166.019531 61.3125 C 165.992188 61.210938 165.933594 61.128906 165.84375 61.074219 C 165.753906 61.015625 165.65625 60.992188 165.550781 61.007812 C 165.445312 61.023438 165.359375 61.074219 165.289062 61.15625 C 165.222656 61.238281 165.191406 61.332031 165.191406 61.4375 Z M 165.191406 61.4375 " fill-opacity="1" fill-rule="nonzero"/></g></g></g></g><g clip-path="url(#b7741e7fd2)"><g clip-path="url(#30d87a9458)"><g clip-path="url(#69b499c6c7)"><g clip-path="url(#059b47dd90)"><path fill="#000000" d="M 123.945312 116.464844 L 123.785156 116.539062 C 123.480469 116.65625 123.242188 116.855469 123.066406 117.128906 C 122.296875 118.566406 122.9375 121.921875 123.136719 123.472656 C 123.585938 126.539062 124.195312 129.574219 124.960938 132.578125 C 125.410156 134.503906 126.03125 136.371094 126.828125 138.179688 C 127.109375 138.78125 127.679688 139.5625 128.179688 139.6875 C 128.621094 139.753906 129.0625 139.742188 129.503906 139.652344 C 129.941406 139.566406 130.351562 139.40625 130.734375 139.175781 C 131.117188 138.945312 131.449219 138.65625 131.734375 138.308594 C 132.015625 137.964844 132.234375 137.582031 132.382812 137.160156 C 133.152344 134.9375 133.179688 132.703125 132.457031 130.464844 L 130.539062 124.550781 C 129.894531 122.296875 129 120.144531 127.855469 118.097656 C 126.886719 116.453125 125.6875 115.714844 123.945312 116.464844 Z M 123.945312 116.464844 " fill-opacity="1" fill-rule="nonzero"/></g></g></g></g><g clip-path="url(#9249e21ff4)"><g clip-path="url(#021afa0b1b)"><g clip-path="url(#e6c4b8fb69)"><g clip-path="url(#34ce4e5554)"><path fill="#000000" d="M 123.777344 116.085938 C 123.445312 116.210938 123.164062 116.402344 122.933594 116.664062 C 122.699219 116.925781 122.539062 117.226562 122.457031 117.566406 C 122.289062 118.285156 122.226562 119.011719 122.273438 119.746094 C 122.378906 121.457031 122.589844 123.160156 122.90625 124.847656 C 123.261719 127.042969 123.710938 129.222656 124.226562 131.386719 C 124.691406 133.523438 125.324219 135.609375 126.121094 137.644531 C 126.695312 139.027344 127.457031 140.332031 129.117188 140.171875 C 129.851562 140.089844 130.523438 139.839844 131.132812 139.421875 C 131.742188 139.003906 132.214844 138.46875 132.554688 137.8125 C 134.609375 133.847656 132.5 129.265625 131.261719 125.417969 C 130.582031 123.019531 129.679688 120.710938 128.554688 118.484375 C 128.113281 117.515625 127.449219 116.730469 126.5625 116.132812 C 126.125 115.90625 125.660156 115.792969 125.167969 115.785156 C 124.679688 115.78125 124.210938 115.882812 123.769531 116.097656 C 123.265625 116.296875 123.597656 117.074219 124.097656 116.871094 C 124.503906 116.667969 124.933594 116.59375 125.386719 116.648438 C 125.839844 116.703125 126.238281 116.878906 126.585938 117.175781 C 127.273438 117.878906 127.804688 118.683594 128.1875 119.589844 C 128.96875 121.253906 129.621094 122.960938 130.148438 124.71875 C 130.761719 126.601562 131.378906 128.488281 131.980469 130.378906 C 132.570312 132.148438 132.691406 133.945312 132.339844 135.773438 C 132.019531 137.332031 131.25 138.746094 129.628906 139.21875 C 129.15625 139.382812 128.679688 139.394531 128.203125 139.242188 C 127.425781 138.925781 127.054688 137.679688 126.773438 136.972656 C 125.421875 133.578125 124.675781 129.894531 124.027344 126.3125 C 123.722656 124.644531 123.449219 122.960938 123.246094 121.277344 C 123.140625 120.480469 123.097656 119.679688 123.121094 118.871094 C 123.160156 118.015625 123.25 117.246094 124.109375 116.851562 C 124.574219 116.628906 124.277344 115.867188 123.777344 116.085938 Z M 123.777344 116.085938 " fill-opacity="1" fill-rule="nonzero"/></g></g></g></g><g clip-path="url(#428cb2c014)"><g clip-path="url(#6879dc4f21)"><g clip-path="url(#ef374327ca)"><g clip-path="url(#4edaa17e1e)"><path fill="#000000" d="M 207.511719 139.347656 C 206.695312 139.570312 205.867188 139.636719 205.023438 139.546875 C 204.183594 139.457031 203.386719 139.21875 202.632812 138.832031 C 202.125 138.585938 201.835938 139.375 202.3125 139.613281 C 203.171875 140.039062 204.078125 140.296875 205.03125 140.386719 C 205.984375 140.472656 206.921875 140.386719 207.839844 140.125 C 207.949219 140.078125 208.023438 140.003906 208.066406 139.894531 C 208.113281 139.789062 208.109375 139.679688 208.066406 139.574219 C 208.019531 139.46875 207.941406 139.394531 207.835938 139.347656 C 207.726562 139.304688 207.621094 139.304688 207.511719 139.347656 Z M 207.511719 139.347656 " fill-opacity="1" fill-rule="nonzero"/></g></g></g></g><g clip-path="url(#51aa1e17a3)"><g clip-path="url(#e7c058bae0)"><g clip-path="url(#3537574350)"><g clip-path="url(#2d2f77ed71)"><path fill="#000000" d="M 185.253906 122.226562 C 183.390625 122.652344 181.542969 122.582031 179.71875 122.015625 C 179.210938 121.847656 178.867188 122.617188 179.402344 122.792969 C 181.367188 123.417969 183.355469 123.503906 185.363281 123.050781 C 185.886719 122.933594 185.757812 122.089844 185.242188 122.222656 Z M 185.253906 122.226562 " fill-opacity="1" fill-rule="nonzero"/></g></g></g></g><g clip-path="url(#88a861b8db)"><g clip-path="url(#c85aa38be4)"><g clip-path="url(#68296f2354)"><g clip-path="url(#16dfd27780)"><path fill="#000000" d="M 158.964844 129.183594 C 157.335938 129.523438 155.730469 129.4375 154.148438 128.925781 C 153.613281 128.742188 153.296875 129.523438 153.832031 129.703125 C 155.554688 130.277344 157.304688 130.382812 159.082031 130.023438 C 159.613281 129.914062 159.472656 129.070312 158.960938 129.1875 Z M 158.964844 129.183594 " fill-opacity="1" fill-rule="nonzero"/></g></g></g></g><g clip-path="url(#c281036f4e)"><g clip-path="url(#918fa69732)"><g clip-path="url(#1358caea57)"><g clip-path="url(#2eb9633501)"><path fill="#000000" d="M 200.542969 183.59375 C 200.453125 184.597656 200.539062 185.589844 200.800781 186.566406 C 201.0625 187.542969 201.488281 188.445312 202.074219 189.273438 C 202.390625 189.714844 203.058594 189.199219 202.746094 188.757812 C 202.222656 188.023438 201.84375 187.21875 201.609375 186.347656 C 201.375 185.476562 201.296875 184.59375 201.378906 183.699219 C 201.429688 183.15625 200.59375 183.054688 200.542969 183.59375 Z M 200.542969 183.59375 " fill-opacity="1" fill-rule="nonzero"/></g></g></g></g><g clip-path="url(#2dfc391f1c)"><g clip-path="url(#79d2682549)"><g clip-path="url(#f2a21cfc87)"><g clip-path="url(#cd071c0608)"><path fill="#000000" d="M 169.8125 182.105469 C 169.578125 183.167969 169.597656 184.222656 169.871094 185.277344 C 170.144531 186.328125 170.644531 187.261719 171.367188 188.074219 C 171.4375 188.15625 171.53125 188.207031 171.640625 188.222656 C 171.75 188.234375 171.851562 188.210938 171.941406 188.152344 C 172.027344 188.078125 172.078125 187.988281 172.089844 187.875 C 172.105469 187.765625 172.078125 187.664062 172.011719 187.574219 C 171.359375 186.847656 170.90625 186.007812 170.664062 185.0625 C 170.417969 184.117188 170.40625 183.164062 170.625 182.214844 C 170.640625 182.097656 170.609375 181.996094 170.535156 181.902344 C 170.464844 181.8125 170.371094 181.757812 170.253906 181.746094 C 170.140625 181.730469 170.035156 181.761719 169.945312 181.832031 C 169.851562 181.90625 169.800781 182 169.785156 182.113281 Z M 169.8125 182.105469 " fill-opacity="1" fill-rule="nonzero"/></g></g></g></g></svg>